<?xml version="1.0" encoding="UTF-8"?>
<!--Generator: Apple Native CoreSVG 123-->
<!DOCTYPE svg
PUBLIC "-//W3C//DTD SVG 1.1//EN"
       "http://www.w3.org/Graphics/SVG/1.1/DTD/svg11.dtd">
<svg version="1.1" xmlns="http://www.w3.org/2000/svg" xmlns:xlink="http://www.w3.org/1999/xlink" width="3300" height="2200">
 <!--glyph: "uni1001F9.medium", point size: 100.000000, font version: "Version 15.0d7e11", template writer version: "5"-->
 <g id="Notes">
  <rect height="2200" id="artboard" style="fill:white;opacity:1" width="3300" x="0" y="0"/>
  <line id="" style="fill:none;stroke:black;opacity:1;stroke-width:0.5;" x1="263" x2="3036" y1="292" y2="292"/>
  <text style="stroke:none;fill:black;font-family:-apple-system,&quot;SF Pro Display&quot;,&quot;SF Pro Text&quot;,Helvetica,sans-serif;font-weight:bold;" transform="matrix(1 0 0 1 263 322)">Weight/Scale Variations</text>
  <text style="stroke:none;fill:black;font-family:-apple-system,&quot;SF Pro Display&quot;,&quot;SF Pro Text&quot;,Helvetica,sans-serif;text-anchor:middle;" transform="matrix(1 0 0 1 559.711 322)">Ultralight</text>
  <text style="stroke:none;fill:black;font-family:-apple-system,&quot;SF Pro Display&quot;,&quot;SF Pro Text&quot;,Helvetica,sans-serif;text-anchor:middle;" transform="matrix(1 0 0 1 856.422 322)">Thin</text>
  <text style="stroke:none;fill:black;font-family:-apple-system,&quot;SF Pro Display&quot;,&quot;SF Pro Text&quot;,Helvetica,sans-serif;text-anchor:middle;" transform="matrix(1 0 0 1 1153.13 322)">Light</text>
  <text style="stroke:none;fill:black;font-family:-apple-system,&quot;SF Pro Display&quot;,&quot;SF Pro Text&quot;,Helvetica,sans-serif;text-anchor:middle;" transform="matrix(1 0 0 1 1449.84 322)">Regular</text>
  <text style="stroke:none;fill:black;font-family:-apple-system,&quot;SF Pro Display&quot;,&quot;SF Pro Text&quot;,Helvetica,sans-serif;text-anchor:middle;" transform="matrix(1 0 0 1 1746.56 322)">Medium</text>
  <text style="stroke:none;fill:black;font-family:-apple-system,&quot;SF Pro Display&quot;,&quot;SF Pro Text&quot;,Helvetica,sans-serif;text-anchor:middle;" transform="matrix(1 0 0 1 2043.27 322)">Semibold</text>
  <text style="stroke:none;fill:black;font-family:-apple-system,&quot;SF Pro Display&quot;,&quot;SF Pro Text&quot;,Helvetica,sans-serif;text-anchor:middle;" transform="matrix(1 0 0 1 2339.98 322)">Bold</text>
  <text style="stroke:none;fill:black;font-family:-apple-system,&quot;SF Pro Display&quot;,&quot;SF Pro Text&quot;,Helvetica,sans-serif;text-anchor:middle;" transform="matrix(1 0 0 1 2636.69 322)">Heavy</text>
  <text style="stroke:none;fill:black;font-family:-apple-system,&quot;SF Pro Display&quot;,&quot;SF Pro Text&quot;,Helvetica,sans-serif;text-anchor:middle;" transform="matrix(1 0 0 1 2933.4 322)">Black</text>
  <line id="" style="fill:none;stroke:black;opacity:1;stroke-width:0.5;" x1="263" x2="3036" y1="1903" y2="1903"/>
  <g id="" transform="matrix(1 0 0 1 263 1933)">
   <path d="M 9.24805 0.830078 C 13.5547 0.830078 17.1387 -2.74414 17.1387 -7.05078 C 17.1387 -11.3574 13.5449 -14.9316 9.23828 -14.9316 C 4.94141 -14.9316 1.36719 -11.3574 1.36719 -7.05078 C 1.36719 -2.74414 4.95117 0.830078 9.24805 0.830078 Z M 9.24805 -0.654297 C 5.70312 -0.654297 2.87109 -3.49609 2.87109 -7.05078 C 2.87109 -10.6055 5.69336 -13.4473 9.23828 -13.4473 C 12.793 -13.4473 15.6348 -10.6055 15.6445 -7.05078 C 15.6543 -3.49609 12.8027 -0.654297 9.24805 -0.654297 Z M 9.22852 -3.42773 C 9.69727 -3.42773 9.9707 -3.74023 9.9707 -4.25781 L 9.9707 -6.31836 L 12.1973 -6.31836 C 12.6953 -6.31836 13.0371 -6.57227 13.0371 -7.04102 C 13.0371 -7.51953 12.7148 -7.7832 12.1973 -7.7832 L 9.9707 -7.7832 L 9.9707 -10.0098 C 9.9707 -10.5273 9.69727 -10.8496 9.22852 -10.8496 C 8.75977 -10.8496 8.50586 -10.5078 8.50586 -10.0098 L 8.50586 -7.7832 L 6.29883 -7.7832 C 5.78125 -7.7832 5.44922 -7.51953 5.44922 -7.04102 C 5.44922 -6.57227 5.80078 -6.31836 6.29883 -6.31836 L 8.50586 -6.31836 L 8.50586 -4.25781 C 8.50586 -3.75977 8.75977 -3.42773 9.22852 -3.42773 Z"/>
  </g>
  <g id="" transform="matrix(1 0 0 1 281.506 1933)">
   <path d="M 11.709 2.91016 C 17.1582 2.91016 21.6699 -1.60156 21.6699 -7.05078 C 21.6699 -12.4902 17.1484 -17.0117 11.6992 -17.0117 C 6.25977 -17.0117 1.74805 -12.4902 1.74805 -7.05078 C 1.74805 -1.60156 6.26953 2.91016 11.709 2.91016 Z M 11.709 1.25 C 7.09961 1.25 3.41797 -2.44141 3.41797 -7.05078 C 3.41797 -11.6504 7.08984 -15.3516 11.6992 -15.3516 C 16.3086 -15.3516 20 -11.6504 20.0098 -7.05078 C 20.0195 -2.44141 16.3184 1.25 11.709 1.25 Z M 11.6895 -2.41211 C 12.207 -2.41211 12.5195 -2.77344 12.5195 -3.33984 L 12.5195 -6.23047 L 15.5762 -6.23047 C 16.123 -6.23047 16.5039 -6.51367 16.5039 -7.03125 C 16.5039 -7.55859 16.1426 -7.86133 15.5762 -7.86133 L 12.5195 -7.86133 L 12.5195 -10.9277 C 12.5195 -11.5039 12.207 -11.8555 11.6895 -11.8555 C 11.1719 -11.8555 10.8789 -11.4844 10.8789 -10.9277 L 10.8789 -7.86133 L 7.83203 -7.86133 C 7.26562 -7.86133 6.89453 -7.55859 6.89453 -7.03125 C 6.89453 -6.51367 7.28516 -6.23047 7.83203 -6.23047 L 10.8789 -6.23047 L 10.8789 -3.33984 C 10.8789 -2.79297 11.1719 -2.41211 11.6895 -2.41211 Z"/>
  </g>
  <g id="" transform="matrix(1 0 0 1 304.924 1933)">
   <path d="M 14.9707 5.67383 C 21.9336 5.67383 27.6953 -0.078125 27.6953 -7.04102 C 27.6953 -14.0039 21.9238 -19.7559 14.9609 -19.7559 C 8.00781 -19.7559 2.25586 -14.0039 2.25586 -7.04102 C 2.25586 -0.078125 8.01758 5.67383 14.9707 5.67383 Z M 14.9707 3.85742 C 8.93555 3.85742 4.08203 -1.00586 4.08203 -7.04102 C 4.08203 -13.0762 8.92578 -17.9395 14.9609 -17.9395 C 21.0059 -17.9395 25.8594 -13.0762 25.8691 -7.04102 C 25.8789 -1.00586 21.0156 3.85742 14.9707 3.85742 Z M 14.9512 -1.06445 C 15.5176 -1.06445 15.8691 -1.45508 15.8691 -2.06055 L 15.8691 -6.13281 L 20.1074 -6.13281 C 20.6934 -6.13281 21.1133 -6.46484 21.1133 -7.02148 C 21.1133 -7.59766 20.7227 -7.93945 20.1074 -7.93945 L 15.8691 -7.93945 L 15.8691 -12.1875 C 15.8691 -12.8027 15.5176 -13.1934 14.9512 -13.1934 C 14.3848 -13.1934 14.0625 -12.7832 14.0625 -12.1875 L 14.0625 -7.93945 L 9.83398 -7.93945 C 9.21875 -7.93945 8.80859 -7.59766 8.80859 -7.02148 C 8.80859 -6.46484 9.23828 -6.13281 9.83398 -6.13281 L 14.0625 -6.13281 L 14.0625 -2.06055 C 14.0625 -1.47461 14.3848 -1.06445 14.9512 -1.06445 Z"/>
  </g>
  <text style="stroke:none;fill:black;font-family:-apple-system,&quot;SF Pro Display&quot;,&quot;SF Pro Text&quot;,Helvetica,sans-serif;font-weight:bold;" transform="matrix(1 0 0 1 263 1953)">Design Variations</text>
  <text style="stroke:none;fill:black;font-family:-apple-system,&quot;SF Pro Display&quot;,&quot;SF Pro Text&quot;,Helvetica,sans-serif;" transform="matrix(1 0 0 1 263 1971)">Symbols are supported in up to nine weights and three scales.</text>
  <text style="stroke:none;fill:black;font-family:-apple-system,&quot;SF Pro Display&quot;,&quot;SF Pro Text&quot;,Helvetica,sans-serif;" transform="matrix(1 0 0 1 263 1989)">For optimal layout with text and other symbols, vertically align</text>
  <text style="stroke:none;fill:black;font-family:-apple-system,&quot;SF Pro Display&quot;,&quot;SF Pro Text&quot;,Helvetica,sans-serif;" transform="matrix(1 0 0 1 263 2007)">symbols with the adjacent text.</text>
  <rect height="14" id="" style="fill:#00AEEF;stroke:none;opacity:0.4;" width="3" x="776" y="1919"/>
  <g id="" transform="matrix(1 0 0 1 779 1933)">
   <path d="M 10.5273 0 L 12.373 0 L 7.17773 -14.0918 L 5.43945 -14.0918 L 0.244141 0 L 2.08984 0 L 3.50586 -4.0332 L 9.11133 -4.0332 Z M 6.2793 -11.9531 L 6.33789 -11.9531 L 8.59375 -5.52734 L 4.02344 -5.52734 Z"/>
  </g>
  <rect height="14" id="" style="fill:#00AEEF;stroke:none;opacity:0.4;" width="3" x="791.617" y="1919"/>
  <text style="stroke:none;fill:black;font-family:-apple-system,&quot;SF Pro Display&quot;,&quot;SF Pro Text&quot;,Helvetica,sans-serif;font-weight:bold;" transform="matrix(1 0 0 1 776 1953)">Margins</text>
  <text style="stroke:none;fill:black;font-family:-apple-system,&quot;SF Pro Display&quot;,&quot;SF Pro Text&quot;,Helvetica,sans-serif;" transform="matrix(1 0 0 1 776 1971)">Leading and trailing margins on the left and right side of each symbol</text>
  <text style="stroke:none;fill:black;font-family:-apple-system,&quot;SF Pro Display&quot;,&quot;SF Pro Text&quot;,Helvetica,sans-serif;" transform="matrix(1 0 0 1 776 1989)">can be adjusted by modifying the width of the blue rectangles.</text>
  <text style="stroke:none;fill:black;font-family:-apple-system,&quot;SF Pro Display&quot;,&quot;SF Pro Text&quot;,Helvetica,sans-serif;" transform="matrix(1 0 0 1 776 2007)">Modifications are automatically applied proportionally to all</text>
  <text style="stroke:none;fill:black;font-family:-apple-system,&quot;SF Pro Display&quot;,&quot;SF Pro Text&quot;,Helvetica,sans-serif;" transform="matrix(1 0 0 1 776 2025)">scales and weights.</text>
  <g id="" transform="matrix(1 0 0 1 1289 1933)">
   <path d="M 2.83203 3.11523 L 4.375 4.6582 C 5.22461 5.48828 6.19141 5.41992 7.06055 4.46289 L 17.2754 -6.66016 C 17.7051 -6.36719 18.0957 -6.37695 18.5645 -6.47461 L 19.6094 -6.68945 L 20.3027 -5.99609 L 20.2539 -5.47852 C 20.1855 -4.95117 20.3516 -4.53125 20.8496 -4.0332 L 21.6602 -3.22266 C 22.168 -2.71484 22.8223 -2.68555 23.3008 -3.16406 L 26.5527 -6.41602 C 27.0312 -6.89453 27.0117 -7.54883 26.5039 -8.05664 L 25.6836 -8.87695 C 25.1855 -9.375 24.7754 -9.55078 24.2383 -9.47266 L 23.7109 -9.41406 L 23.0566 -10.0781 L 23.3398 -11.2207 C 23.4863 -11.7871 23.3398 -12.2559 22.7148 -12.8613 L 20.3027 -15.2539 C 16.7578 -18.7793 12.2266 -18.6719 9.11133 -15.5371 C 8.69141 -15.1074 8.64258 -14.5215 8.91602 -14.0918 C 9.15039 -13.7207 9.62891 -13.4961 10.2734 -13.6621 C 11.7871 -14.043 13.3008 -13.9258 14.7852 -12.9199 L 14.1602 -11.3379 C 13.9258 -10.752 13.9453 -10.2734 14.1797 -9.83398 L 3.01758 0.439453 C 2.08008 1.30859 1.97266 2.25586 2.83203 3.11523 Z M 10.6738 -15.1465 C 13.3398 -17.1387 16.6504 -16.8262 19.0527 -14.4141 L 21.6797 -11.8066 C 21.9141 -11.5723 21.9434 -11.3867 21.8848 -11.0938 L 21.5039 -9.53125 L 23.0762 -7.95898 L 24.043 -8.04688 C 24.3262 -8.07617 24.4141 -8.05664 24.6387 -7.83203 L 25.2637 -7.20703 L 22.5098 -4.46289 L 21.8848 -5.07812 C 21.6602 -5.30273 21.6406 -5.40039 21.6699 -5.68359 L 21.7578 -6.64062 L 20.1953 -8.20312 L 18.5742 -7.89062 C 18.291 -7.83203 18.1445 -7.83203 17.9102 -8.07617 L 15.7324 -10.2539 C 15.5078 -10.4883 15.4785 -10.625 15.6055 -10.9473 L 16.5527 -13.2227 C 14.9512 -14.7559 12.8418 -15.6055 10.8008 -14.9512 C 10.7129 -14.9219 10.6445 -14.9414 10.6152 -14.9805 C 10.5859 -15.0293 10.5859 -15.0781 10.6738 -15.1465 Z M 4.10156 2.41211 C 3.61328 1.91406 3.78906 1.61133 4.12109 1.30859 L 15.0781 -8.80859 L 16.3086 -7.57812 L 6.15234 3.34961 C 5.84961 3.68164 5.46875 3.7793 5.06836 3.37891 Z"/>
  </g>
  <text style="stroke:none;fill:black;font-family:-apple-system,&quot;SF Pro Display&quot;,&quot;SF Pro Text&quot;,Helvetica,sans-serif;font-weight:bold;" transform="matrix(1 0 0 1 1289 1953)">Exporting</text>
  <text style="stroke:none;fill:black;font-family:-apple-system,&quot;SF Pro Display&quot;,&quot;SF Pro Text&quot;,Helvetica,sans-serif;" transform="matrix(1 0 0 1 1289 1971)">Symbols should be outlined when exporting to ensure the</text>
  <text style="stroke:none;fill:black;font-family:-apple-system,&quot;SF Pro Display&quot;,&quot;SF Pro Text&quot;,Helvetica,sans-serif;" transform="matrix(1 0 0 1 1289 1989)">design is preserved when submitting to Xcode.</text>
  <text id="template-version" style="stroke:none;fill:black;font-family:-apple-system,&quot;SF Pro Display&quot;,&quot;SF Pro Text&quot;,Helvetica,sans-serif;text-anchor:end;" transform="matrix(1 0 0 1 3036 1933)">Template v.1.0</text>
  <text style="stroke:none;fill:black;font-family:-apple-system,&quot;SF Pro Display&quot;,&quot;SF Pro Text&quot;,Helvetica,sans-serif;text-anchor:end;" transform="matrix(1 0 0 1 3036 1951)">Generated from circle.grid.3x3.fill</text>
  <text style="stroke:none;fill:black;font-family:-apple-system,&quot;SF Pro Display&quot;,&quot;SF Pro Text&quot;,Helvetica,sans-serif;text-anchor:end;" transform="matrix(1 0 0 1 3036 1969)">Typeset at 100 points</text>
  <text style="stroke:none;fill:black;font-family:-apple-system,&quot;SF Pro Display&quot;,&quot;SF Pro Text&quot;,Helvetica,sans-serif;" transform="matrix(1 0 0 1 263 726)">Small</text>
  <text style="stroke:none;fill:black;font-family:-apple-system,&quot;SF Pro Display&quot;,&quot;SF Pro Text&quot;,Helvetica,sans-serif;" transform="matrix(1 0 0 1 263 1156)">Medium</text>
  <text style="stroke:none;fill:black;font-family:-apple-system,&quot;SF Pro Display&quot;,&quot;SF Pro Text&quot;,Helvetica,sans-serif;" transform="matrix(1 0 0 1 263 1586)">Large</text>
 </g>
 <g id="Guides">
  <g id="H-reference" style="fill:#27AAE1;stroke:none;" transform="matrix(1 0 0 1 339 696)">
   <path d="M 54.9316 0 L 57.666 0 L 30.5664 -70.459 L 28.0762 -70.459 L 0.976562 0 L 3.66211 0 L 12.9395 -24.4629 L 45.7031 -24.4629 Z M 29.1992 -67.0898 L 29.4434 -67.0898 L 44.8242 -26.709 L 13.8184 -26.709 Z"/>
  </g>
  <line id="Baseline-S" style="fill:none;stroke:#27AAE1;opacity:1;stroke-width:0.577;" x1="263" x2="3036" y1="696" y2="696"/>
  <line id="Capline-S" style="fill:none;stroke:#27AAE1;opacity:1;stroke-width:0.577;" x1="263" x2="3036" y1="625.541" y2="625.541"/>
  <g id="H-reference" style="fill:#27AAE1;stroke:none;" transform="matrix(1 0 0 1 339 1126)">
   <path d="M 54.9316 0 L 57.666 0 L 30.5664 -70.459 L 28.0762 -70.459 L 0.976562 0 L 3.66211 0 L 12.9395 -24.4629 L 45.7031 -24.4629 Z M 29.1992 -67.0898 L 29.4434 -67.0898 L 44.8242 -26.709 L 13.8184 -26.709 Z"/>
  </g>
  <line id="Baseline-M" style="fill:none;stroke:#27AAE1;opacity:1;stroke-width:0.577;" x1="263" x2="3036" y1="1126" y2="1126"/>
  <line id="Capline-M" style="fill:none;stroke:#27AAE1;opacity:1;stroke-width:0.577;" x1="263" x2="3036" y1="1055.54" y2="1055.54"/>
  <g id="H-reference" style="fill:#27AAE1;stroke:none;" transform="matrix(1 0 0 1 339 1556)">
   <path d="M 54.9316 0 L 57.666 0 L 30.5664 -70.459 L 28.0762 -70.459 L 0.976562 0 L 3.66211 0 L 12.9395 -24.4629 L 45.7031 -24.4629 Z M 29.1992 -67.0898 L 29.4434 -67.0898 L 44.8242 -26.709 L 13.8184 -26.709 Z"/>
  </g>
  <line id="Baseline-L" style="fill:none;stroke:#27AAE1;opacity:1;stroke-width:0.577;" x1="263" x2="3036" y1="1556" y2="1556"/>
  <line id="Capline-L" style="fill:none;stroke:#27AAE1;opacity:1;stroke-width:0.577;" x1="263" x2="3036" y1="1485.54" y2="1485.54"/>
  <rect height="119.336" id="left-margin" style="fill:#00AEEF;stroke:none;opacity:0.4;" width="12.4512" x="1387.95" y="1030.79"/>
  <rect height="119.336" id="right-margin" style="fill:#00AEEF;stroke:none;opacity:0.4;" width="12.4512" x="1499.28" y="1030.79"/>
 </g>
 <g id="Symbols">
  <g id="Black-L" transform="matrix(1 0 0 1 2845.56 1556)">
   <path d="M 138.477 -62.5977 C 150.146 -62.5977 159.619 -72.2168 159.619 -83.7891 C 159.619 -95.459 150.146 -104.98 138.477 -104.932 C 126.953 -104.834 117.432 -95.459 117.432 -83.7891 C 117.432 -72.2168 126.953 -62.5977 138.477 -62.5977 Z M 87.8418 -62.5977 C 99.3652 -62.5977 108.984 -72.2168 108.984 -83.7891 C 108.984 -95.459 99.3652 -104.98 87.8418 -104.932 C 76.3184 -104.834 66.6992 -95.459 66.6992 -83.7891 C 66.6992 -72.2168 76.3184 -62.5977 87.8418 -62.5977 Z M 37.1582 -62.6953 C 48.6816 -62.6953 58.2031 -72.2168 58.2031 -83.7402 C 58.2031 -95.2637 48.6816 -104.834 37.1582 -104.834 C 25.5371 -104.834 16.0645 -95.2637 16.0645 -83.7402 C 16.0645 -72.2168 25.5371 -62.6953 37.1582 -62.6953 Z M 37.1582 -14.0625 C 48.6816 -14.0625 58.2031 -23.6816 58.2031 -35.2051 C 58.2031 -46.7285 48.6816 -56.2988 37.1582 -56.25 C 25.5371 -56.1523 16.0645 -46.7285 16.0645 -35.2051 C 16.0645 -23.6816 25.5371 -14.0625 37.1582 -14.0625 Z M 87.8418 -14.0625 C 99.3652 -14.0625 108.984 -23.6816 108.984 -35.2051 C 108.984 -46.7285 99.3652 -56.2988 87.8418 -56.25 C 76.3184 -56.1523 66.6992 -46.7285 66.6992 -35.2051 C 66.6992 -23.6816 76.3184 -14.0625 87.8418 -14.0625 Z M 138.477 -14.0625 C 150.146 -14.0625 159.619 -23.6816 159.619 -35.2051 C 159.619 -46.7285 150.146 -56.2988 138.477 -56.25 C 126.953 -56.1523 117.432 -46.7285 117.432 -35.2051 C 117.432 -23.6816 126.953 -14.0625 138.477 -14.0625 Z M 37.1582 34.6191 C 48.6816 34.6191 58.2031 24.9512 58.2031 13.4277 C 58.2031 1.80664 48.6816 -7.66602 37.1582 -7.66602 C 25.5371 -7.66602 16.0645 1.80664 16.0645 13.4277 C 16.0645 24.9512 25.5371 34.6191 37.1582 34.6191 Z M 87.8418 34.6191 C 99.3652 34.6191 108.984 24.9512 108.984 13.4277 C 108.984 1.80664 99.3652 -7.66602 87.8418 -7.66602 C 76.3184 -7.66602 66.6992 1.80664 66.6992 13.4277 C 66.6992 24.9512 76.3184 34.6191 87.8418 34.6191 Z M 138.477 34.6191 C 150.146 34.6191 159.619 24.9512 159.619 13.4277 C 159.619 1.80664 150.146 -7.66602 138.477 -7.66602 C 126.953 -7.66602 117.432 1.80664 117.432 13.4277 C 117.432 24.9512 126.953 34.6191 138.477 34.6191 Z"/>
  </g>
  <g id="Heavy-L" transform="matrix(1 0 0 1 2550.68 1556)">
   <path d="M 85.9863 -61.9629 C 97.168 -61.9629 106.445 -71.2402 106.445 -82.4219 C 106.445 -93.7012 97.168 -102.93 85.9863 -102.881 C 74.8535 -102.783 65.5762 -93.7012 65.5762 -82.4219 C 65.5762 -71.2402 74.8535 -61.9629 85.9863 -61.9629 Z M 135.547 -61.9629 C 146.777 -61.9629 155.957 -71.2402 155.957 -82.4219 C 155.957 -93.7012 146.777 -102.93 135.547 -102.881 C 124.365 -102.783 115.137 -93.7012 115.137 -82.4219 C 115.137 -71.2402 124.365 -61.9629 135.547 -61.9629 Z M 36.4746 -62.0605 C 47.6562 -62.0605 56.8359 -71.2402 56.8359 -82.373 C 56.8359 -93.5059 47.6562 -102.832 36.4746 -102.832 C 25.2441 -102.832 16.0645 -93.5059 16.0645 -82.373 C 16.0645 -71.2402 25.2441 -62.0605 36.4746 -62.0605 Z M 36.4746 -14.7461 C 47.6562 -14.7461 56.8359 -24.0234 56.8359 -35.2051 C 56.8359 -46.3379 47.6562 -55.6152 36.4746 -55.5664 C 25.2441 -55.4688 16.0645 -46.3379 16.0645 -35.2051 C 16.0645 -24.0234 25.2441 -14.7461 36.4746 -14.7461 Z M 85.9863 -14.7461 C 97.168 -14.7461 106.445 -24.0234 106.445 -35.2051 C 106.445 -46.3379 97.168 -55.6152 85.9863 -55.5664 C 74.8535 -55.4688 65.5762 -46.3379 65.5762 -35.2051 C 65.5762 -24.0234 74.8535 -14.7461 85.9863 -14.7461 Z M 135.547 -14.7461 C 146.777 -14.7461 155.957 -24.0234 155.957 -35.2051 C 155.957 -46.3379 146.777 -55.6152 135.547 -55.5664 C 124.365 -55.4688 115.137 -46.3379 115.137 -35.2051 C 115.137 -24.0234 124.365 -14.7461 135.547 -14.7461 Z M 36.4746 32.5684 C 47.6562 32.5684 56.8359 23.2422 56.8359 12.0605 C 56.8359 0.830078 47.6562 -8.34961 36.4746 -8.34961 C 25.2441 -8.34961 16.0645 0.830078 16.0645 12.0605 C 16.0645 23.2422 25.2441 32.5684 36.4746 32.5684 Z M 85.9863 32.5684 C 97.168 32.5684 106.445 23.2422 106.445 12.0605 C 106.445 0.830078 97.168 -8.34961 85.9863 -8.34961 C 74.8535 -8.34961 65.5762 0.830078 65.5762 12.0605 C 65.5762 23.2422 74.8535 32.5684 85.9863 32.5684 Z M 135.547 32.5684 C 146.777 32.5684 155.957 23.2422 155.957 12.0605 C 155.957 0.830078 146.777 -8.34961 135.547 -8.34961 C 124.365 -8.34961 115.137 0.830078 115.137 12.0605 C 115.137 23.2422 124.365 32.5684 135.547 32.5684 Z"/>
  </g>
  <g id="Bold-L" transform="matrix(1 0 0 1 2256.02 1556)">
   <path d="M 83.9844 -61.2305 C 94.7266 -61.2305 103.613 -70.166 103.613 -80.9082 C 103.613 -91.748 94.7266 -100.635 83.9844 -100.586 C 73.1934 -100.488 64.3066 -91.748 64.3066 -80.9082 C 64.3066 -70.166 73.1934 -61.2305 83.9844 -61.2305 Z M 132.227 -61.2305 C 143.018 -61.2305 151.855 -70.166 151.855 -80.9082 C 151.855 -91.748 143.018 -100.635 132.227 -100.586 C 121.484 -100.488 112.598 -91.748 112.598 -80.9082 C 112.598 -70.166 121.484 -61.2305 132.227 -61.2305 Z M 35.6934 -61.2793 C 46.4355 -61.2793 55.3223 -70.166 55.3223 -80.8594 C 55.3223 -91.6016 46.4355 -100.537 35.6934 -100.537 C 24.9023 -100.537 16.0645 -91.6016 16.0645 -80.8594 C 16.0645 -70.166 24.9023 -61.2793 35.6934 -61.2793 Z M 35.6934 -15.5273 C 46.4355 -15.5273 55.3223 -24.4141 55.3223 -35.1562 C 55.3223 -45.8984 46.4355 -54.834 35.6934 -54.7852 C 24.9023 -54.7363 16.0645 -45.8984 16.0645 -35.1562 C 16.0645 -24.4141 24.9023 -15.5273 35.6934 -15.5273 Z M 83.9844 -15.5273 C 94.7266 -15.5273 103.613 -24.4141 103.613 -35.1562 C 103.613 -45.8984 94.7266 -54.834 83.9844 -54.7852 C 73.1934 -54.7363 64.3066 -45.8984 64.3066 -35.1562 C 64.3066 -24.4141 73.1934 -15.5273 83.9844 -15.5273 Z M 132.227 -15.5273 C 143.018 -15.5273 151.855 -24.4141 151.855 -35.1562 C 151.855 -45.8984 143.018 -54.834 132.227 -54.7852 C 121.484 -54.7363 112.598 -45.8984 112.598 -35.1562 C 112.598 -24.4141 121.484 -15.5273 132.227 -15.5273 Z M 35.6934 30.2734 C 46.4355 30.2734 55.3223 21.2891 55.3223 10.5469 C 55.3223 -0.244141 46.4355 -9.08203 35.6934 -9.08203 C 24.9023 -9.08203 16.0645 -0.244141 16.0645 10.5469 C 16.0645 21.2891 24.9023 30.2734 35.6934 30.2734 Z M 83.9844 30.2734 C 94.7266 30.2734 103.613 21.2891 103.613 10.5469 C 103.613 -0.244141 94.7266 -9.08203 83.9844 -9.08203 C 73.1934 -9.08203 64.3066 -0.244141 64.3066 10.5469 C 64.3066 21.2891 73.1934 30.2734 83.9844 30.2734 Z M 132.227 30.2734 C 143.018 30.2734 151.855 21.2891 151.855 10.5469 C 151.855 -0.244141 143.018 -9.08203 132.227 -9.08203 C 121.484 -9.08203 112.598 -0.244141 112.598 10.5469 C 112.598 21.2891 121.484 30.2734 132.227 30.2734 Z"/>
  </g>
  <g id="Semibold-L" transform="matrix(1 0 0 1 1960.72 1556)">
   <path d="M 82.5684 -60.7422 C 93.0176 -60.7422 101.66 -69.3848 101.66 -79.8828 C 101.66 -90.4297 93.0176 -99.0234 82.5684 -98.9746 C 72.0703 -98.9258 63.4277 -90.4297 63.4277 -79.8828 C 63.4277 -69.3848 72.0703 -60.7422 82.5684 -60.7422 Z M 129.932 -60.7422 C 140.43 -60.7422 149.023 -69.3848 149.023 -79.8828 C 149.023 -90.4297 140.43 -99.0234 129.932 -98.9746 C 119.482 -98.9258 110.84 -90.4297 110.84 -79.8828 C 110.84 -69.3848 119.482 -60.7422 129.932 -60.7422 Z M 35.1562 -60.791 C 45.6055 -60.791 54.248 -69.3848 54.248 -79.834 C 54.248 -90.2832 45.6055 -98.9746 35.1562 -98.9746 C 24.6582 -98.9746 16.0645 -90.2832 16.0645 -79.834 C 16.0645 -69.3848 24.6582 -60.791 35.1562 -60.791 Z M 35.1562 -16.0645 C 45.6055 -16.0645 54.248 -24.707 54.248 -35.1562 C 54.248 -45.6055 45.6055 -54.2969 35.1562 -54.248 C 24.6582 -54.1992 16.0645 -45.6055 16.0645 -35.1562 C 16.0645 -24.707 24.6582 -16.0645 35.1562 -16.0645 Z M 129.932 -16.0645 C 140.43 -16.0645 149.023 -24.707 149.023 -35.1562 C 149.023 -45.6055 140.43 -54.2969 129.932 -54.248 C 119.482 -54.1992 110.84 -45.6055 110.84 -35.1562 C 110.84 -24.707 119.482 -16.0645 129.932 -16.0645 Z M 82.5684 -16.0645 C 93.0176 -16.0645 101.66 -24.707 101.66 -35.1562 C 101.66 -45.6055 93.0176 -54.2969 82.5684 -54.248 C 72.0703 -54.1992 63.4277 -45.6055 63.4277 -35.1562 C 63.4277 -24.707 72.0703 -16.0645 82.5684 -16.0645 Z M 35.1562 28.6621 C 45.6055 28.6621 54.248 19.9707 54.248 9.52148 C 54.248 -0.976562 45.6055 -9.57031 35.1562 -9.57031 C 24.6582 -9.57031 16.0645 -0.976562 16.0645 9.52148 C 16.0645 19.9707 24.6582 28.6621 35.1562 28.6621 Z M 82.5684 28.6621 C 93.0176 28.6621 101.66 19.9707 101.66 9.52148 C 101.66 -0.976562 93.0176 -9.57031 82.5684 -9.57031 C 72.0703 -9.57031 63.4277 -0.976562 63.4277 9.52148 C 63.4277 19.9707 72.0703 28.6621 82.5684 28.6621 Z M 129.932 28.6621 C 140.43 28.6621 149.023 19.9707 149.023 9.52148 C 149.023 -0.976562 140.43 -9.57031 129.932 -9.57031 C 119.482 -9.57031 110.84 -0.976562 110.84 9.52148 C 110.84 19.9707 119.482 28.6621 129.932 28.6621 Z"/>
  </g>
  <g id="Medium-L" transform="matrix(1 0 0 1 1665.09 1556)">
   <path d="M 81.4941 -60.3516 C 91.6992 -60.3516 100.195 -68.8477 100.195 -79.1016 C 100.195 -89.4043 91.6992 -97.8516 81.4941 -97.7539 C 71.2402 -97.7051 62.7441 -89.4043 62.7441 -79.1016 C 62.7441 -68.8477 71.2402 -60.3516 81.4941 -60.3516 Z M 128.223 -60.3516 C 138.477 -60.3516 146.875 -68.8477 146.875 -79.1016 C 146.875 -89.4043 138.477 -97.8516 128.223 -97.7539 C 117.969 -97.7051 109.521 -89.4043 109.521 -79.1016 C 109.521 -68.8477 117.969 -60.3516 128.223 -60.3516 Z M 34.7656 -60.4004 C 45.0195 -60.4004 53.418 -68.8477 53.418 -79.0039 C 53.418 -89.2578 45.0195 -97.7539 34.7656 -97.7539 C 24.4629 -97.7539 16.0645 -89.2578 16.0645 -79.0039 C 16.0645 -68.8477 24.4629 -60.4004 34.7656 -60.4004 Z M 81.4941 -16.4551 C 91.6992 -16.4551 100.195 -24.9512 100.195 -35.1562 C 100.195 -45.4102 91.6992 -53.9062 81.4941 -53.8574 C 71.2402 -53.8086 62.7441 -45.4102 62.7441 -35.1562 C 62.7441 -24.9512 71.2402 -16.4551 81.4941 -16.4551 Z M 128.223 -16.4551 C 138.477 -16.4551 146.875 -24.9512 146.875 -35.1562 C 146.875 -45.4102 138.477 -53.9062 128.223 -53.8574 C 117.969 -53.8086 109.521 -45.4102 109.521 -35.1562 C 109.521 -24.9512 117.969 -16.4551 128.223 -16.4551 Z M 34.7656 -16.4551 C 45.0195 -16.4551 53.418 -24.9512 53.418 -35.1562 C 53.418 -45.4102 45.0195 -53.9062 34.7656 -53.8574 C 24.4629 -53.8086 16.0645 -45.4102 16.0645 -35.1562 C 16.0645 -24.9512 24.4629 -16.4551 34.7656 -16.4551 Z M 34.7656 27.4414 C 45.0195 27.4414 53.418 18.9453 53.418 8.74023 C 53.418 -1.51367 45.0195 -9.96094 34.7656 -9.96094 C 24.4629 -9.96094 16.0645 -1.51367 16.0645 8.74023 C 16.0645 18.9453 24.4629 27.4414 34.7656 27.4414 Z M 81.4941 27.4414 C 91.6992 27.4414 100.195 18.9453 100.195 8.74023 C 100.195 -1.51367 91.6992 -9.96094 81.4941 -9.96094 C 71.2402 -9.96094 62.7441 -1.51367 62.7441 8.74023 C 62.7441 18.9453 71.2402 27.4414 81.4941 27.4414 Z M 128.223 27.4414 C 138.477 27.4414 146.875 18.9453 146.875 8.74023 C 146.875 -1.51367 138.477 -9.96094 128.223 -9.96094 C 117.969 -9.96094 109.521 -1.51367 109.521 8.74023 C 109.521 18.9453 117.969 27.4414 128.223 27.4414 Z"/>
  </g>
  <g id="Regular-L" transform="matrix(1 0 0 1 1369.77 1556)">
   <path d="M 80.0781 -59.8633 C 90.0391 -59.8633 98.291 -68.0664 98.291 -78.0273 C 98.291 -88.0371 90.0391 -96.2402 80.0781 -96.1914 C 70.1172 -96.1426 61.8652 -88.0371 61.8652 -78.0273 C 61.8652 -68.0664 70.1172 -59.8633 80.0781 -59.8633 Z M 125.928 -59.8633 C 135.889 -59.8633 144.092 -68.0664 144.092 -78.0273 C 144.092 -88.0371 135.889 -96.2402 125.928 -96.1914 C 115.967 -96.1426 107.764 -88.0371 107.764 -78.0273 C 107.764 -68.0664 115.967 -59.8633 125.928 -59.8633 Z M 34.2285 -59.9121 C 44.1895 -59.9121 52.3926 -68.0664 52.3926 -77.9785 C 52.3926 -87.9395 44.1895 -96.1914 34.2285 -96.1914 C 24.2676 -96.1914 16.0645 -87.9395 16.0645 -77.9785 C 16.0645 -68.0664 24.2676 -59.9121 34.2285 -59.9121 Z M 80.0781 -16.9922 C 90.0391 -16.9922 98.291 -25.1953 98.291 -35.1562 C 98.291 -45.1172 90.0391 -53.3691 80.0781 -53.3203 C 70.1172 -53.2715 61.8652 -45.1172 61.8652 -35.1562 C 61.8652 -25.1953 70.1172 -16.9922 80.0781 -16.9922 Z M 34.2285 -16.9922 C 44.1895 -16.9922 52.3926 -25.1953 52.3926 -35.1562 C 52.3926 -45.1172 44.1895 -53.3691 34.2285 -53.3203 C 24.2676 -53.2715 16.0645 -45.1172 16.0645 -35.1562 C 16.0645 -25.1953 24.2676 -16.9922 34.2285 -16.9922 Z M 125.928 -16.9922 C 135.889 -16.9922 144.092 -25.1953 144.092 -35.1562 C 144.092 -45.1172 135.889 -53.3691 125.928 -53.3203 C 115.967 -53.2715 107.764 -45.1172 107.764 -35.1562 C 107.764 -25.1953 115.967 -16.9922 125.928 -16.9922 Z M 34.2285 25.8789 C 44.1895 25.8789 52.3926 17.627 52.3926 7.71484 C 52.3926 -2.24609 44.1895 -10.498 34.2285 -10.498 C 24.2676 -10.498 16.0645 -2.24609 16.0645 7.71484 C 16.0645 17.627 24.2676 25.8789 34.2285 25.8789 Z M 80.0781 25.8789 C 90.0391 25.8789 98.291 17.627 98.291 7.71484 C 98.291 -2.24609 90.0391 -10.498 80.0781 -10.498 C 70.1172 -10.498 61.8652 -2.24609 61.8652 7.71484 C 61.8652 17.627 70.1172 25.8789 80.0781 25.8789 Z M 125.928 25.8789 C 135.889 25.8789 144.092 17.627 144.092 7.71484 C 144.092 -2.24609 135.889 -10.498 125.928 -10.498 C 115.967 -10.498 107.764 -2.24609 107.764 7.71484 C 107.764 17.627 115.967 25.8789 125.928 25.8789 Z"/>
  </g>
  <g id="Light-L" transform="matrix(1 0 0 1 1072.76 1556)">
   <path d="M 34.3262 -60.0098 C 44.3359 -60.0098 52.5391 -68.2129 52.5391 -78.1738 C 52.5391 -88.1836 44.3359 -96.4844 34.3262 -96.4844 C 24.2676 -96.4844 16.0645 -88.1836 16.0645 -78.1738 C 16.0645 -68.2129 24.2676 -60.0098 34.3262 -60.0098 Z M 80.3711 -59.9609 C 90.3809 -59.9609 98.6328 -68.2129 98.6328 -78.2227 C 98.6328 -88.2324 90.3809 -96.5332 80.3711 -96.4844 C 70.3613 -96.4355 62.1094 -88.2324 62.1094 -78.2227 C 62.1094 -68.2129 70.3613 -59.9609 80.3711 -59.9609 Z M 126.465 -59.9609 C 136.426 -59.9609 144.678 -68.2129 144.678 -78.2227 C 144.678 -88.2324 136.426 -96.5332 126.465 -96.4844 C 116.406 -96.4355 108.203 -88.2324 108.203 -78.2227 C 108.203 -68.2129 116.406 -59.9609 126.465 -59.9609 Z M 34.3262 -16.8945 C 44.3359 -16.8945 52.5391 -25.1465 52.5391 -35.1562 C 52.5391 -45.1172 44.3359 -53.418 34.3262 -53.418 C 24.2676 -53.3691 16.0645 -45.1172 16.0645 -35.1562 C 16.0645 -25.1465 24.2676 -16.8945 34.3262 -16.8945 Z M 80.3711 -16.8945 C 90.3809 -16.8945 98.6328 -25.1465 98.6328 -35.1562 C 98.6328 -45.1172 90.3809 -53.418 80.3711 -53.418 C 70.3613 -53.3691 62.1094 -45.1172 62.1094 -35.1562 C 62.1094 -25.1465 70.3613 -16.8945 80.3711 -16.8945 Z M 126.465 -16.8945 C 136.426 -16.8945 144.678 -25.1465 144.678 -35.1562 C 144.678 -45.1172 136.426 -53.418 126.465 -53.418 C 116.406 -53.3691 108.203 -45.1172 108.203 -35.1562 C 108.203 -25.1465 116.406 -16.8945 126.465 -16.8945 Z M 34.3262 26.123 C 44.3359 26.123 52.5391 17.8711 52.5391 7.91016 C 52.5391 -2.09961 44.3359 -10.3516 34.3262 -10.3516 C 24.2676 -10.3516 16.0645 -2.09961 16.0645 7.91016 C 16.0645 17.8711 24.2676 26.123 34.3262 26.123 Z M 80.3711 26.123 C 90.3809 26.123 98.6328 17.8711 98.6328 7.91016 C 98.6328 -2.09961 90.3809 -10.3516 80.3711 -10.3516 C 70.3613 -10.3516 62.1094 -2.09961 62.1094 7.91016 C 62.1094 17.8711 70.3613 26.123 80.3711 26.123 Z M 126.465 26.123 C 136.426 26.123 144.678 17.8711 144.678 7.91016 C 144.678 -2.09961 136.426 -10.3516 126.465 -10.3516 C 116.406 -10.3516 108.203 -2.09961 108.203 7.91016 C 108.203 17.8711 116.406 26.123 126.465 26.123 Z"/>
  </g>
  <g id="Thin-L" transform="matrix(1 0 0 1 775.685 1556)">
   <path d="M 34.4238 -60.1562 C 44.4824 -60.1562 52.7344 -68.4082 52.7344 -78.4668 C 52.7344 -88.5254 44.4824 -96.875 34.4238 -96.875 C 24.3164 -96.875 16.0645 -88.5254 16.0645 -78.4668 C 16.0645 -68.4082 24.3164 -60.1562 34.4238 -60.1562 Z M 80.7617 -60.1562 C 90.8203 -60.1562 99.0723 -68.4082 99.0723 -78.4668 C 99.0723 -88.5254 90.8203 -96.875 80.7617 -96.875 C 70.6543 -96.8262 62.4023 -88.5254 62.4023 -78.4668 C 62.4023 -68.4082 70.6543 -60.1562 80.7617 -60.1562 Z M 127.1 -60.1562 C 137.158 -60.1562 145.41 -68.4082 145.41 -78.4668 C 145.41 -88.5254 137.158 -96.875 127.1 -96.875 C 116.992 -96.8262 108.74 -88.5254 108.74 -78.4668 C 108.74 -68.4082 116.992 -60.1562 127.1 -60.1562 Z M 34.4238 -16.7969 C 44.4824 -16.7969 52.7344 -25.0977 52.7344 -35.1074 C 52.7344 -45.166 44.4824 -53.5156 34.4238 -53.5156 C 24.3164 -53.5156 16.0645 -45.166 16.0645 -35.1074 C 16.0645 -25.0977 24.3164 -16.7969 34.4238 -16.7969 Z M 80.7617 -16.7969 C 90.8203 -16.7969 99.0723 -25.0977 99.0723 -35.1074 C 99.0723 -45.166 90.8203 -53.5156 80.7617 -53.5156 C 70.6543 -53.5156 62.4023 -45.166 62.4023 -35.1074 C 62.4023 -25.0977 70.6543 -16.7969 80.7617 -16.7969 Z M 127.1 -16.7969 C 137.158 -16.7969 145.41 -25.0977 145.41 -35.1074 C 145.41 -45.166 137.158 -53.5156 127.1 -53.5156 C 116.992 -53.5156 108.74 -45.166 108.74 -35.1074 C 108.74 -25.0977 116.992 -16.7969 127.1 -16.7969 Z M 34.4238 26.4648 C 44.4824 26.4648 52.7344 18.2129 52.7344 8.1543 C 52.7344 -1.85547 44.4824 -10.2051 34.4238 -10.2051 C 24.3164 -10.2051 16.0645 -1.85547 16.0645 8.1543 C 16.0645 18.2129 24.3164 26.4648 34.4238 26.4648 Z M 80.7617 26.4648 C 90.8203 26.4648 99.0723 18.2129 99.0723 8.1543 C 99.0723 -1.85547 90.8203 -10.2051 80.7617 -10.2051 C 70.6543 -10.2051 62.4023 -1.85547 62.4023 8.1543 C 62.4023 18.2129 70.6543 26.4648 80.7617 26.4648 Z M 127.1 26.4648 C 137.158 26.4648 145.41 18.2129 145.41 8.1543 C 145.41 -1.85547 137.158 -10.2051 127.1 -10.2051 C 116.992 -10.2051 108.74 -1.85547 108.74 8.1543 C 108.74 18.2129 116.992 26.4648 127.1 26.4648 Z"/>
  </g>
  <g id="Ultralight-L" transform="matrix(1 0 0 1 478.778 1556)">
   <path d="M 34.5215 -60.2539 C 44.5801 -60.2539 52.8809 -68.5547 52.8809 -78.6133 C 52.8809 -88.6719 44.5801 -97.0215 34.5215 -97.0215 C 24.3652 -97.0215 16.0645 -88.6719 16.0645 -78.6133 C 16.0645 -68.5547 24.3652 -60.2539 34.5215 -60.2539 Z M 80.957 -60.2539 C 91.0645 -60.2539 99.3164 -68.5547 99.3164 -78.6133 C 99.3164 -88.6719 91.0645 -97.0215 80.957 -97.0215 C 70.8496 -97.0703 62.5488 -88.6719 62.5488 -78.6133 C 62.5488 -68.5547 70.8496 -60.2539 80.957 -60.2539 Z M 127.441 -60.2539 C 137.5 -60.2539 145.801 -68.5547 145.801 -78.6133 C 145.801 -88.6719 137.5 -97.0215 127.441 -97.0215 C 117.285 -97.0703 108.984 -88.6719 108.984 -78.6133 C 108.984 -68.5547 117.285 -60.2539 127.441 -60.2539 Z M 34.5215 -16.748 C 44.5801 -16.748 52.8809 -25.0488 52.8809 -35.1074 C 52.8809 -45.166 44.5801 -53.5645 34.5215 -53.5645 C 24.3652 -53.5645 16.0645 -45.166 16.0645 -35.1074 C 16.0645 -25.0488 24.3652 -16.748 34.5215 -16.748 Z M 80.957 -16.748 C 91.0645 -16.748 99.3164 -25.0488 99.3164 -35.1074 C 99.3164 -45.166 91.0645 -53.5645 80.957 -53.5645 C 70.8496 -53.5645 62.5488 -45.166 62.5488 -35.1074 C 62.5488 -25.0488 70.8496 -16.748 80.957 -16.748 Z M 127.441 -16.748 C 137.5 -16.748 145.801 -25.0488 145.801 -35.1074 C 145.801 -45.166 137.5 -53.5645 127.441 -53.5645 C 117.285 -53.5645 108.984 -45.166 108.984 -35.1074 C 108.984 -25.0488 117.285 -16.748 127.441 -16.748 Z M 34.5215 26.6602 C 44.5801 26.6602 52.8809 18.3594 52.8809 8.30078 C 52.8809 -1.75781 44.5801 -10.1562 34.5215 -10.1562 C 24.3652 -10.1562 16.0645 -1.75781 16.0645 8.30078 C 16.0645 18.3594 24.3652 26.6602 34.5215 26.6602 Z M 80.957 26.6602 C 91.0645 26.6602 99.3164 18.3594 99.3164 8.30078 C 99.3164 -1.75781 91.0645 -10.1562 80.957 -10.1562 C 70.8496 -10.1562 62.5488 -1.75781 62.5488 8.30078 C 62.5488 18.3594 70.8496 26.6602 80.957 26.6602 Z M 127.441 26.6602 C 137.5 26.6602 145.801 18.3594 145.801 8.30078 C 145.801 -1.75781 137.5 -10.1562 127.441 -10.1562 C 117.285 -10.1562 108.984 -1.75781 108.984 8.30078 C 108.984 18.3594 117.285 26.6602 127.441 26.6602 Z"/>
  </g>
  <g id="Black-M" transform="matrix(1 0 0 1 2862.72 1126)">
   <path d="M 111.572 -57.4219 C 121.143 -57.4219 128.906 -65.2832 128.906 -74.8047 C 128.906 -84.375 121.143 -92.2363 111.572 -92.1387 C 102.148 -92.0898 94.2871 -84.375 94.2871 -74.8047 C 94.2871 -65.2832 102.148 -57.4219 111.572 -57.4219 Z M 70.7031 -57.4219 C 80.127 -57.4219 88.0371 -65.2832 88.0371 -74.8047 C 88.0371 -84.375 80.127 -92.2363 70.7031 -92.1387 C 61.2305 -92.0898 53.3691 -84.375 53.3691 -74.8047 C 53.3691 -65.2832 61.2305 -57.4219 70.7031 -57.4219 Z M 29.7852 -57.4707 C 39.2578 -57.4707 47.0703 -65.2832 47.0703 -74.7559 C 47.0703 -84.1797 39.2578 -92.0898 29.7852 -92.0898 C 20.2148 -92.0898 12.4512 -84.1797 12.4512 -74.7559 C 12.4512 -65.2832 20.2148 -57.4707 29.7852 -57.4707 Z M 29.7852 -17.8711 C 39.2578 -17.8711 47.0703 -25.7324 47.0703 -35.2051 C 47.0703 -44.6289 39.2578 -52.5391 29.7852 -52.4902 C 20.2148 -52.3926 12.4512 -44.6289 12.4512 -35.2051 C 12.4512 -25.7324 20.2148 -17.8711 29.7852 -17.8711 Z M 70.7031 -17.8711 C 80.127 -17.8711 88.0371 -25.7324 88.0371 -35.2051 C 88.0371 -44.6289 80.127 -52.5391 70.7031 -52.4902 C 61.2305 -52.3926 53.3691 -44.6289 53.3691 -35.2051 C 53.3691 -25.7324 61.2305 -17.8711 70.7031 -17.8711 Z M 111.572 -17.8711 C 121.143 -17.8711 128.906 -25.7324 128.906 -35.2051 C 128.906 -44.6289 121.143 -52.5391 111.572 -52.4902 C 102.148 -52.3926 94.2871 -44.6289 94.2871 -35.2051 C 94.2871 -25.7324 102.148 -17.8711 111.572 -17.8711 Z M 29.7852 21.8262 C 39.2578 21.8262 47.0703 13.8672 47.0703 4.39453 C 47.0703 -5.17578 39.2578 -12.9395 29.7852 -12.9395 C 20.2148 -12.9395 12.4512 -5.17578 12.4512 4.39453 C 12.4512 13.8672 20.2148 21.8262 29.7852 21.8262 Z M 70.7031 21.8262 C 80.127 21.8262 88.0371 13.8672 88.0371 4.39453 C 88.0371 -5.17578 80.127 -12.9395 70.7031 -12.9395 C 61.2305 -12.9395 53.3691 -5.17578 53.3691 4.39453 C 53.3691 13.8672 61.2305 21.8262 70.7031 21.8262 Z M 111.572 21.8262 C 121.143 21.8262 128.906 13.8672 128.906 4.39453 C 128.906 -5.17578 121.143 -12.9395 111.572 -12.9395 C 102.148 -12.9395 94.2871 -5.17578 94.2871 4.39453 C 94.2871 13.8672 102.148 21.8262 111.572 21.8262 Z"/>
  </g>
  <g id="Heavy-M" transform="matrix(1 0 0 1 2568.09 1126)">
   <path d="M 68.6035 -56.6406 C 77.6367 -56.6406 85.2051 -64.209 85.2051 -73.291 C 85.2051 -82.4219 77.6367 -89.8926 68.6035 -89.8438 C 59.5703 -89.7949 52.0508 -82.4219 52.0508 -73.291 C 52.0508 -64.209 59.5703 -56.6406 68.6035 -56.6406 Z M 108.203 -56.6406 C 117.334 -56.6406 124.756 -64.209 124.756 -73.291 C 124.756 -82.4219 117.334 -89.8926 108.203 -89.8438 C 99.1699 -89.7949 91.6992 -82.4219 91.6992 -73.291 C 91.6992 -64.209 99.1699 -56.6406 108.203 -56.6406 Z M 29.0039 -56.7383 C 38.0371 -56.7383 45.5078 -64.209 45.5078 -73.1934 C 45.5078 -82.2754 38.0371 -89.7949 29.0039 -89.7949 C 19.873 -89.7949 12.4512 -82.2754 12.4512 -73.1934 C 12.4512 -64.209 19.873 -56.7383 29.0039 -56.7383 Z M 108.203 -18.6035 C 117.334 -18.6035 124.756 -26.1719 124.756 -35.2051 C 124.756 -44.2383 117.334 -51.7578 108.203 -51.709 C 99.1699 -51.6602 91.6992 -44.2383 91.6992 -35.2051 C 91.6992 -26.1719 99.1699 -18.6035 108.203 -18.6035 Z M 68.6035 -18.6035 C 77.6367 -18.6035 85.2051 -26.1719 85.2051 -35.2051 C 85.2051 -44.2383 77.6367 -51.7578 68.6035 -51.709 C 59.5703 -51.6602 52.0508 -44.2383 52.0508 -35.2051 C 52.0508 -26.1719 59.5703 -18.6035 68.6035 -18.6035 Z M 29.0039 -18.6035 C 38.0371 -18.6035 45.5078 -26.1719 45.5078 -35.2051 C 45.5078 -44.2383 38.0371 -51.7578 29.0039 -51.709 C 19.873 -51.6602 12.4512 -44.2383 12.4512 -35.2051 C 12.4512 -26.1719 19.873 -18.6035 29.0039 -18.6035 Z M 29.0039 19.4824 C 38.0371 19.4824 45.5078 11.9141 45.5078 2.88086 C 45.5078 -6.25 38.0371 -13.6719 29.0039 -13.6719 C 19.873 -13.6719 12.4512 -6.25 12.4512 2.88086 C 12.4512 11.9141 19.873 19.4824 29.0039 19.4824 Z M 68.6035 19.4824 C 77.6367 19.4824 85.2051 11.9141 85.2051 2.88086 C 85.2051 -6.25 77.6367 -13.6719 68.6035 -13.6719 C 59.5703 -13.6719 52.0508 -6.25 52.0508 2.88086 C 52.0508 11.9141 59.5703 19.4824 68.6035 19.4824 Z M 108.203 19.4824 C 117.334 19.4824 124.756 11.9141 124.756 2.88086 C 124.756 -6.25 117.334 -13.6719 108.203 -13.6719 C 99.1699 -13.6719 91.6992 -6.25 91.6992 2.88086 C 91.6992 11.9141 99.1699 19.4824 108.203 19.4824 Z"/>
  </g>
  <g id="Bold-M" transform="matrix(1 0 0 1 2273.69 1126)">
   <path d="M 66.3086 -55.8105 C 74.8535 -55.8105 81.9824 -62.9395 81.9824 -71.5332 C 81.9824 -80.2246 74.8535 -87.3047 66.3086 -87.2559 C 57.7148 -87.207 50.5859 -80.2246 50.5859 -71.5332 C 50.5859 -62.9395 57.7148 -55.8105 66.3086 -55.8105 Z M 104.443 -55.8105 C 113.086 -55.8105 120.117 -62.9395 120.117 -71.5332 C 120.117 -80.2246 113.086 -87.3047 104.443 -87.2559 C 95.8984 -87.207 88.8184 -80.2246 88.8184 -71.5332 C 88.8184 -62.9395 95.8984 -55.8105 104.443 -55.8105 Z M 28.125 -55.8594 C 36.7188 -55.8594 43.7988 -62.9395 43.7988 -71.4844 C 43.7988 -80.0781 36.7188 -87.207 28.125 -87.207 C 19.4824 -87.207 12.4512 -80.0781 12.4512 -71.4844 C 12.4512 -62.9395 19.4824 -55.8594 28.125 -55.8594 Z M 28.125 -19.4824 C 36.7188 -19.4824 43.7988 -26.6113 43.7988 -35.2051 C 43.7988 -43.75 36.7188 -50.8789 28.125 -50.8301 C 19.4824 -50.7812 12.4512 -43.75 12.4512 -35.2051 C 12.4512 -26.6113 19.4824 -19.4824 28.125 -19.4824 Z M 66.3086 -19.4824 C 74.8535 -19.4824 81.9824 -26.6113 81.9824 -35.2051 C 81.9824 -43.75 74.8535 -50.8789 66.3086 -50.8301 C 57.7148 -50.7812 50.5859 -43.75 50.5859 -35.2051 C 50.5859 -26.6113 57.7148 -19.4824 66.3086 -19.4824 Z M 104.443 -19.4824 C 113.086 -19.4824 120.117 -26.6113 120.117 -35.2051 C 120.117 -43.75 113.086 -50.8789 104.443 -50.8301 C 95.8984 -50.7812 88.8184 -43.75 88.8184 -35.2051 C 88.8184 -26.6113 95.8984 -19.4824 104.443 -19.4824 Z M 28.125 16.8945 C 36.7188 16.8945 43.7988 9.7168 43.7988 1.17188 C 43.7988 -7.4707 36.7188 -14.502 28.125 -14.502 C 19.4824 -14.502 12.4512 -7.4707 12.4512 1.17188 C 12.4512 9.7168 19.4824 16.8945 28.125 16.8945 Z M 66.3086 16.8945 C 74.8535 16.8945 81.9824 9.7168 81.9824 1.17188 C 81.9824 -7.4707 74.8535 -14.502 66.3086 -14.502 C 57.7148 -14.502 50.5859 -7.4707 50.5859 1.17188 C 50.5859 9.7168 57.7148 16.8945 66.3086 16.8945 Z M 104.443 16.8945 C 113.086 16.8945 120.117 9.7168 120.117 1.17188 C 120.117 -7.4707 113.086 -14.502 104.443 -14.502 C 95.8984 -14.502 88.8184 -7.4707 88.8184 1.17188 C 88.8184 9.7168 95.8984 16.8945 104.443 16.8945 Z"/>
  </g>
  <g id="Semibold-M" transform="matrix(1 0 0 1 1978.57 1126)">
   <path d="M 101.855 -55.2246 C 110.156 -55.2246 116.943 -62.1094 116.943 -70.3613 C 116.943 -78.7109 110.156 -85.498 101.855 -85.4492 C 93.6035 -85.4004 86.8164 -78.7109 86.8164 -70.3613 C 86.8164 -62.1094 93.6035 -55.2246 101.855 -55.2246 Z M 64.6973 -55.2246 C 72.9492 -55.2246 79.7852 -62.1094 79.7852 -70.3613 C 79.7852 -78.7109 72.9492 -85.498 64.6973 -85.4492 C 56.4453 -85.4004 49.5605 -78.7109 49.5605 -70.3613 C 49.5605 -62.1094 56.4453 -55.2246 64.6973 -55.2246 Z M 27.5391 -55.3223 C 35.791 -55.3223 42.5781 -62.1094 42.5781 -70.3125 C 42.5781 -78.5645 35.791 -85.4492 27.5391 -85.4492 C 19.2383 -85.4492 12.4512 -78.5645 12.4512 -70.3125 C 12.4512 -62.1094 19.2383 -55.3223 27.5391 -55.3223 Z M 101.855 -20.0684 C 110.156 -20.0684 116.943 -26.9531 116.943 -35.2051 C 116.943 -43.457 110.156 -50.293 101.855 -50.2441 C 93.6035 -50.1953 86.8164 -43.457 86.8164 -35.2051 C 86.8164 -26.9531 93.6035 -20.0684 101.855 -20.0684 Z M 64.6973 -20.0684 C 72.9492 -20.0684 79.7852 -26.9531 79.7852 -35.2051 C 79.7852 -43.457 72.9492 -50.293 64.6973 -50.2441 C 56.4453 -50.1953 49.5605 -43.457 49.5605 -35.2051 C 49.5605 -26.9531 56.4453 -20.0684 64.6973 -20.0684 Z M 27.5391 -20.0684 C 35.791 -20.0684 42.5781 -26.9531 42.5781 -35.2051 C 42.5781 -43.457 35.791 -50.293 27.5391 -50.2441 C 19.2383 -50.1953 12.4512 -43.457 12.4512 -35.2051 C 12.4512 -26.9531 19.2383 -20.0684 27.5391 -20.0684 Z M 27.5391 15.0879 C 35.791 15.0879 42.5781 8.25195 42.5781 0 C 42.5781 -8.30078 35.791 -15.0879 27.5391 -15.0879 C 19.2383 -15.0879 12.4512 -8.30078 12.4512 0 C 12.4512 8.25195 19.2383 15.0879 27.5391 15.0879 Z M 64.6973 15.0879 C 72.9492 15.0879 79.7852 8.25195 79.7852 0 C 79.7852 -8.30078 72.9492 -15.0879 64.6973 -15.0879 C 56.4453 -15.0879 49.5605 -8.30078 49.5605 0 C 49.5605 8.25195 56.4453 15.0879 64.6973 15.0879 Z M 101.855 15.0879 C 110.156 15.0879 116.943 8.25195 116.943 0 C 116.943 -8.30078 110.156 -15.0879 101.855 -15.0879 C 93.6035 -15.0879 86.8164 -8.30078 86.8164 0 C 86.8164 8.25195 93.6035 15.0879 101.855 15.0879 Z"/>
  </g>
  <g id="Medium-M" transform="matrix(1 0 0 1 1683.08 1126)">
   <path d="M 99.9023 -54.7852 C 107.91 -54.7852 114.502 -61.4746 114.502 -69.4824 C 114.502 -77.5391 107.91 -84.1309 99.9023 -84.082 C 91.8945 -84.0332 85.3027 -77.5391 85.3027 -69.4824 C 85.3027 -61.4746 91.8945 -54.7852 99.9023 -54.7852 Z M 63.4766 -54.7852 C 71.4844 -54.7852 78.125 -61.4746 78.125 -69.4824 C 78.125 -77.5391 71.4844 -84.1309 63.4766 -84.082 C 55.4688 -84.0332 48.8281 -77.5391 48.8281 -69.4824 C 48.8281 -61.4746 55.4688 -54.7852 63.4766 -54.7852 Z M 27.0996 -54.8828 C 35.1074 -54.8828 41.6992 -61.4746 41.6992 -69.4336 C 41.6992 -77.4414 35.1074 -84.082 27.0996 -84.082 C 19.043 -84.082 12.4512 -77.4414 12.4512 -69.4336 C 12.4512 -61.4746 19.043 -54.8828 27.0996 -54.8828 Z M 27.0996 -20.5566 C 35.1074 -20.5566 41.6992 -27.1973 41.6992 -35.2051 C 41.6992 -43.2129 35.1074 -49.8535 27.0996 -49.8047 C 19.043 -49.7559 12.4512 -43.2129 12.4512 -35.2051 C 12.4512 -27.1973 19.043 -20.5566 27.0996 -20.5566 Z M 99.9023 -20.5566 C 107.91 -20.5566 114.502 -27.1973 114.502 -35.2051 C 114.502 -43.2129 107.91 -49.8535 99.9023 -49.8047 C 91.8945 -49.7559 85.3027 -43.2129 85.3027 -35.2051 C 85.3027 -27.1973 91.8945 -20.5566 99.9023 -20.5566 Z M 63.4766 -20.5566 C 71.4844 -20.5566 78.125 -27.1973 78.125 -35.2051 C 78.125 -43.2129 71.4844 -49.8535 63.4766 -49.8047 C 55.4688 -49.7559 48.8281 -43.2129 48.8281 -35.2051 C 48.8281 -27.1973 55.4688 -20.5566 63.4766 -20.5566 Z M 27.0996 13.7695 C 35.1074 13.7695 41.6992 7.08008 41.6992 -0.927734 C 41.6992 -8.93555 35.1074 -15.5273 27.0996 -15.5273 C 19.043 -15.5273 12.4512 -8.93555 12.4512 -0.927734 C 12.4512 7.08008 19.043 13.7695 27.0996 13.7695 Z M 63.4766 13.7695 C 71.4844 13.7695 78.125 7.08008 78.125 -0.927734 C 78.125 -8.93555 71.4844 -15.5273 63.4766 -15.5273 C 55.4688 -15.5273 48.8281 -8.93555 48.8281 -0.927734 C 48.8281 7.08008 55.4688 13.7695 63.4766 13.7695 Z M 99.9023 13.7695 C 107.91 13.7695 114.502 7.08008 114.502 -0.927734 C 114.502 -8.93555 107.91 -15.5273 99.9023 -15.5273 C 91.8945 -15.5273 85.3027 -8.93555 85.3027 -0.927734 C 85.3027 7.08008 91.8945 13.7695 99.9023 13.7695 Z"/>
  </g>
  <g id="Regular-M" transform="matrix(1 0 0 1 1387.95 1126)">
   <path d="M 61.9141 -54.248 C 69.5801 -54.248 75.9766 -60.5957 75.9766 -68.3105 C 75.9766 -76.0254 69.5801 -82.373 61.9141 -82.3242 C 54.1992 -82.2754 47.8027 -76.0254 47.8027 -68.3105 C 47.8027 -60.5957 54.1992 -54.248 61.9141 -54.248 Z M 97.3145 -54.248 C 105.029 -54.248 111.328 -60.5957 111.328 -68.3105 C 111.328 -76.0254 105.029 -82.373 97.3145 -82.3242 C 89.5996 -82.2754 83.3008 -76.0254 83.3008 -68.3105 C 83.3008 -60.5957 89.5996 -54.248 97.3145 -54.248 Z M 26.4648 -54.2969 C 34.1797 -54.2969 40.4785 -60.5957 40.4785 -68.2617 C 40.4785 -75.9277 34.1797 -82.3242 26.4648 -82.3242 C 18.75 -82.3242 12.4512 -75.9277 12.4512 -68.2617 C 12.4512 -60.5957 18.75 -54.2969 26.4648 -54.2969 Z M 61.9141 -21.1426 C 69.5801 -21.1426 75.9766 -27.4902 75.9766 -35.2051 C 75.9766 -42.8711 69.5801 -49.2676 61.9141 -49.2188 C 54.1992 -49.1699 47.8027 -42.8711 47.8027 -35.2051 C 47.8027 -27.4902 54.1992 -21.1426 61.9141 -21.1426 Z M 26.4648 -21.1426 C 34.1797 -21.1426 40.4785 -27.4902 40.4785 -35.2051 C 40.4785 -42.8711 34.1797 -49.2676 26.4648 -49.2188 C 18.75 -49.1699 12.4512 -42.8711 12.4512 -35.2051 C 12.4512 -27.4902 18.75 -21.1426 26.4648 -21.1426 Z M 97.3145 -21.1426 C 105.029 -21.1426 111.328 -27.4902 111.328 -35.2051 C 111.328 -42.8711 105.029 -49.2676 97.3145 -49.2188 C 89.5996 -49.1699 83.3008 -42.8711 83.3008 -35.2051 C 83.3008 -27.4902 89.5996 -21.1426 97.3145 -21.1426 Z M 26.4648 11.9629 C 34.1797 11.9629 40.4785 5.61523 40.4785 -2.09961 C 40.4785 -9.76562 34.1797 -16.1133 26.4648 -16.1133 C 18.75 -16.1133 12.4512 -9.76562 12.4512 -2.09961 C 12.4512 5.61523 18.75 11.9629 26.4648 11.9629 Z M 61.9141 11.9629 C 69.5801 11.9629 75.9766 5.61523 75.9766 -2.09961 C 75.9766 -9.76562 69.5801 -16.1133 61.9141 -16.1133 C 54.1992 -16.1133 47.8027 -9.76562 47.8027 -2.09961 C 47.8027 5.61523 54.1992 11.9629 61.9141 11.9629 Z M 97.3145 11.9629 C 105.029 11.9629 111.328 5.61523 111.328 -2.09961 C 111.328 -9.76562 105.029 -16.1133 97.3145 -16.1133 C 89.5996 -16.1133 83.3008 -9.76562 83.3008 -2.09961 C 83.3008 5.61523 89.5996 11.9629 97.3145 11.9629 Z"/>
  </g>
  <g id="Light-M" transform="matrix(1 0 0 1 1090.98 1126)">
   <path d="M 26.5625 -54.3945 C 34.2773 -54.3945 40.625 -60.7422 40.625 -68.457 C 40.625 -76.1719 34.2773 -82.5684 26.5625 -82.5684 C 18.7988 -82.5684 12.4512 -76.1719 12.4512 -68.457 C 12.4512 -60.7422 18.7988 -54.3945 26.5625 -54.3945 Z M 62.1582 -54.3457 C 69.873 -54.3457 76.2695 -60.7422 76.2695 -68.457 C 76.2695 -76.2207 69.873 -82.6172 62.1582 -82.5684 C 54.3945 -82.5684 48.0469 -76.2207 48.0469 -68.457 C 48.0469 -60.7422 54.3945 -54.3457 62.1582 -54.3457 Z M 97.7539 -54.3457 C 105.518 -54.3457 111.865 -60.7422 111.865 -68.457 C 111.865 -76.2207 105.518 -82.6172 97.7539 -82.5684 C 90.0391 -82.5684 83.6426 -76.2207 83.6426 -68.457 C 83.6426 -60.7422 90.0391 -54.3457 97.7539 -54.3457 Z M 26.5625 -21.0449 C 34.2773 -21.0449 40.625 -27.4414 40.625 -35.1562 C 40.625 -42.8711 34.2773 -49.3164 26.5625 -49.2676 C 18.7988 -49.2676 12.4512 -42.8711 12.4512 -35.1562 C 12.4512 -27.4414 18.7988 -21.0449 26.5625 -21.0449 Z M 97.7539 -21.0449 C 105.518 -21.0449 111.865 -27.4414 111.865 -35.1562 C 111.865 -42.8711 105.518 -49.3164 97.7539 -49.2676 C 90.0391 -49.2676 83.6426 -42.8711 83.6426 -35.1562 C 83.6426 -27.4414 90.0391 -21.0449 97.7539 -21.0449 Z M 62.1582 -21.0449 C 69.873 -21.0449 76.2695 -27.4414 76.2695 -35.1562 C 76.2695 -42.8711 69.873 -49.3164 62.1582 -49.2676 C 54.3945 -49.2676 48.0469 -42.8711 48.0469 -35.1562 C 48.0469 -27.4414 54.3945 -21.0449 62.1582 -21.0449 Z M 26.5625 12.207 C 34.2773 12.207 40.625 5.81055 40.625 -1.9043 C 40.625 -9.61914 34.2773 -16.0156 26.5625 -16.0156 C 18.7988 -16.0156 12.4512 -9.61914 12.4512 -1.9043 C 12.4512 5.81055 18.7988 12.207 26.5625 12.207 Z M 62.1582 12.207 C 69.873 12.207 76.2695 5.81055 76.2695 -1.9043 C 76.2695 -9.61914 69.873 -16.0156 62.1582 -16.0156 C 54.3945 -16.0156 48.0469 -9.61914 48.0469 -1.9043 C 48.0469 5.81055 54.3945 12.207 62.1582 12.207 Z M 97.7539 12.207 C 105.518 12.207 111.865 5.81055 111.865 -1.9043 C 111.865 -9.61914 105.518 -16.0156 97.7539 -16.0156 C 90.0391 -16.0156 83.6426 -9.61914 83.6426 -1.9043 C 83.6426 5.81055 90.0391 12.207 97.7539 12.207 Z"/>
  </g>
  <g id="Thin-M" transform="matrix(1 0 0 1 793.922 1126)">
   <path d="M 26.6602 -54.541 C 34.4238 -54.541 40.8203 -60.9375 40.8203 -68.7012 C 40.8203 -76.4648 34.4238 -82.9102 26.6602 -82.9102 C 18.8477 -82.9102 12.4512 -76.4648 12.4512 -68.7012 C 12.4512 -60.9375 18.8477 -54.541 26.6602 -54.541 Z M 62.5 -54.4922 C 70.3125 -54.4922 76.709 -60.9375 76.709 -68.7012 C 76.709 -76.4648 70.3125 -82.9102 62.5 -82.9102 C 54.6875 -82.9102 48.291 -76.4648 48.291 -68.7012 C 48.291 -60.9375 54.6875 -54.4922 62.5 -54.4922 Z M 98.3887 -54.4922 C 106.152 -54.4922 112.549 -60.9375 112.549 -68.7012 C 112.549 -76.4648 106.152 -82.9102 98.3887 -82.9102 C 90.5273 -82.9102 84.1309 -76.4648 84.1309 -68.7012 C 84.1309 -60.9375 90.5273 -54.4922 98.3887 -54.4922 Z M 26.6602 -20.9473 C 34.4238 -20.9473 40.8203 -27.3926 40.8203 -35.1562 C 40.8203 -42.9199 34.4238 -49.3652 26.6602 -49.3652 C 18.8477 -49.3652 12.4512 -42.9199 12.4512 -35.1562 C 12.4512 -27.3926 18.8477 -20.9473 26.6602 -20.9473 Z M 62.5 -20.9473 C 70.3125 -20.9473 76.709 -27.3926 76.709 -35.1562 C 76.709 -42.9199 70.3125 -49.3652 62.5 -49.3652 C 54.6875 -49.3652 48.291 -42.9199 48.291 -35.1562 C 48.291 -27.3926 54.6875 -20.9473 62.5 -20.9473 Z M 98.3887 -20.9473 C 106.152 -20.9473 112.549 -27.3926 112.549 -35.1562 C 112.549 -42.9199 106.152 -49.3652 98.3887 -49.3652 C 90.5273 -49.3652 84.1309 -42.9199 84.1309 -35.1562 C 84.1309 -27.3926 90.5273 -20.9473 98.3887 -20.9473 Z M 26.6602 12.5 C 34.4238 12.5 40.8203 6.10352 40.8203 -1.66016 C 40.8203 -9.42383 34.4238 -15.8691 26.6602 -15.8691 C 18.8477 -15.8691 12.4512 -9.42383 12.4512 -1.66016 C 12.4512 6.10352 18.8477 12.5 26.6602 12.5 Z M 62.5 12.5 C 70.3125 12.5 76.709 6.10352 76.709 -1.66016 C 76.709 -9.42383 70.3125 -15.8691 62.5 -15.8691 C 54.6875 -15.8691 48.291 -9.42383 48.291 -1.66016 C 48.291 6.10352 54.6875 12.5 62.5 12.5 Z M 98.3887 12.5 C 106.152 12.5 112.549 6.10352 112.549 -1.66016 C 112.549 -9.42383 106.152 -15.8691 98.3887 -15.8691 C 90.5273 -15.8691 84.1309 -9.42383 84.1309 -1.66016 C 84.1309 6.10352 90.5273 12.5 98.3887 12.5 Z"/>
  </g>
  <g id="Ultralight-M" transform="matrix(1 0 0 1 497.04 1126)">
   <path d="M 26.709 -54.5898 C 34.5215 -54.5898 40.918 -60.9863 40.918 -68.7988 C 40.918 -76.6113 34.5215 -83.0566 26.709 -83.0566 C 18.8965 -83.0566 12.4512 -76.6113 12.4512 -68.7988 C 12.4512 -60.9863 18.8965 -54.5898 26.709 -54.5898 Z M 62.6953 -54.5898 C 70.5078 -54.5898 76.9043 -60.9863 76.9043 -68.7988 C 76.9043 -76.6113 70.5078 -83.0566 62.6953 -83.0566 C 54.834 -83.0566 48.4375 -76.6113 48.4375 -68.7988 C 48.4375 -60.9863 54.834 -54.5898 62.6953 -54.5898 Z M 98.6816 -54.5898 C 106.445 -54.5898 112.891 -60.9863 112.891 -68.7988 C 112.891 -76.6113 106.445 -83.0566 98.6816 -83.0566 C 90.8203 -83.0566 84.375 -76.6113 84.375 -68.7988 C 84.375 -60.9863 90.8203 -54.5898 98.6816 -54.5898 Z M 26.709 -20.8984 C 34.5215 -20.8984 40.918 -27.3438 40.918 -35.1562 C 40.918 -42.9199 34.5215 -49.4141 26.709 -49.4141 C 18.8965 -49.4141 12.4512 -42.9199 12.4512 -35.1562 C 12.4512 -27.3438 18.8965 -20.8984 26.709 -20.8984 Z M 62.6953 -20.8984 C 70.5078 -20.8984 76.9043 -27.3438 76.9043 -35.1562 C 76.9043 -42.9199 70.5078 -49.4141 62.6953 -49.4141 C 54.834 -49.4141 48.4375 -42.9199 48.4375 -35.1562 C 48.4375 -27.3438 54.834 -20.8984 62.6953 -20.8984 Z M 98.6816 -20.8984 C 106.445 -20.8984 112.891 -27.3438 112.891 -35.1562 C 112.891 -42.9199 106.445 -49.4141 98.6816 -49.4141 C 90.8203 -49.4141 84.375 -42.9199 84.375 -35.1562 C 84.375 -27.3438 90.8203 -20.8984 98.6816 -20.8984 Z M 26.709 12.6953 C 34.5215 12.6953 40.918 6.25 40.918 -1.51367 C 40.918 -9.32617 34.5215 -15.8203 26.709 -15.8203 C 18.8965 -15.8203 12.4512 -9.32617 12.4512 -1.51367 C 12.4512 6.25 18.8965 12.6953 26.709 12.6953 Z M 62.6953 12.6953 C 70.5078 12.6953 76.9043 6.25 76.9043 -1.51367 C 76.9043 -9.32617 70.5078 -15.8203 62.6953 -15.8203 C 54.834 -15.8203 48.4375 -9.32617 48.4375 -1.51367 C 48.4375 6.25 54.834 12.6953 62.6953 12.6953 Z M 98.6816 12.6953 C 106.445 12.6953 112.891 6.25 112.891 -1.51367 C 112.891 -9.32617 106.445 -15.8203 98.6816 -15.8203 C 90.8203 -15.8203 84.375 -9.32617 84.375 -1.51367 C 84.375 6.25 90.8203 12.6953 98.6816 12.6953 Z"/>
  </g>
  <g id="Black-S" transform="matrix(1 0 0 1 2878.18 696)">
   <path d="M 87.1582 -52.5391 C 94.6289 -52.5391 100.684 -58.6914 100.684 -66.1133 C 100.684 -73.584 94.6289 -79.6875 87.1582 -79.6387 C 79.7852 -79.5898 73.6816 -73.584 73.6816 -66.1133 C 73.6816 -58.6914 79.7852 -52.5391 87.1582 -52.5391 Z M 55.2246 -52.5391 C 62.5977 -52.5391 68.75 -58.6914 68.75 -66.1133 C 68.75 -73.584 62.5977 -79.6875 55.2246 -79.6387 C 47.8516 -79.5898 41.6992 -73.584 41.6992 -66.1133 C 41.6992 -58.6914 47.8516 -52.5391 55.2246 -52.5391 Z M 23.291 -52.5879 C 30.6641 -52.5879 36.7676 -58.6914 36.7676 -66.0645 C 36.7676 -73.4375 30.6641 -79.5898 23.291 -79.5898 C 15.8203 -79.5898 9.76562 -73.4375 9.76562 -66.0645 C 9.76562 -58.6914 15.8203 -52.5879 23.291 -52.5879 Z M 23.291 -21.6797 C 30.6641 -21.6797 36.7676 -27.832 36.7676 -35.2051 C 36.7676 -42.5781 30.6641 -48.7305 23.291 -48.6816 C 15.8203 -48.6328 9.76562 -42.5781 9.76562 -35.2051 C 9.76562 -27.832 15.8203 -21.6797 23.291 -21.6797 Z M 55.2246 -21.6797 C 62.5977 -21.6797 68.75 -27.832 68.75 -35.2051 C 68.75 -42.5781 62.5977 -48.7305 55.2246 -48.6816 C 47.8516 -48.6328 41.6992 -42.5781 41.6992 -35.2051 C 41.6992 -27.832 47.8516 -21.6797 55.2246 -21.6797 Z M 87.1582 -21.6797 C 94.6289 -21.6797 100.684 -27.832 100.684 -35.2051 C 100.684 -42.5781 94.6289 -48.7305 87.1582 -48.6816 C 79.7852 -48.6328 73.6816 -42.5781 73.6816 -35.2051 C 73.6816 -27.832 79.7852 -21.6797 87.1582 -21.6797 Z M 23.291 9.27734 C 30.6641 9.27734 36.7676 3.07617 36.7676 -4.29688 C 36.7676 -11.7676 30.6641 -17.8223 23.291 -17.8223 C 15.8203 -17.8223 9.76562 -11.7676 9.76562 -4.29688 C 9.76562 3.07617 15.8203 9.27734 23.291 9.27734 Z M 55.2246 9.27734 C 62.5977 9.27734 68.75 3.07617 68.75 -4.29688 C 68.75 -11.7676 62.5977 -17.8223 55.2246 -17.8223 C 47.8516 -17.8223 41.6992 -11.7676 41.6992 -4.29688 C 41.6992 3.07617 47.8516 9.27734 55.2246 9.27734 Z M 87.1582 9.27734 C 94.6289 9.27734 100.684 3.07617 100.684 -4.29688 C 100.684 -11.7676 94.6289 -17.8223 87.1582 -17.8223 C 79.7852 -17.8223 73.6816 -11.7676 73.6816 -4.29688 C 73.6816 3.07617 79.7852 9.27734 87.1582 9.27734 Z"/>
  </g>
  <g id="Heavy-S" transform="matrix(1 0 0 1 2583.08 696)">
   <path d="M 53.6133 -51.9531 C 60.6445 -51.9531 66.5527 -57.8125 66.5527 -64.9414 C 66.5527 -72.0703 60.6445 -77.8809 53.6133 -77.832 C 46.5332 -77.7832 40.6738 -72.0703 40.6738 -64.9414 C 40.6738 -57.8125 46.5332 -51.9531 53.6133 -51.9531 Z M 84.5215 -51.9531 C 91.6504 -51.9531 97.4609 -57.8125 97.4609 -64.9414 C 97.4609 -72.0703 91.6504 -77.8809 84.5215 -77.832 C 77.4902 -77.7832 71.6797 -72.0703 71.6797 -64.9414 C 71.6797 -57.8125 77.4902 -51.9531 84.5215 -51.9531 Z M 22.7051 -52.002 C 29.7363 -52.002 35.5469 -57.8125 35.5469 -64.8926 C 35.5469 -71.9238 29.7363 -77.7832 22.7051 -77.7832 C 15.5762 -77.7832 9.76562 -71.9238 9.76562 -64.8926 C 9.76562 -57.8125 15.5762 -52.002 22.7051 -52.002 Z M 84.5215 -22.2656 C 91.6504 -22.2656 97.4609 -28.1738 97.4609 -35.2051 C 97.4609 -42.2363 91.6504 -48.1445 84.5215 -48.0957 C 77.4902 -48.0469 71.6797 -42.2363 71.6797 -35.2051 C 71.6797 -28.1738 77.4902 -22.2656 84.5215 -22.2656 Z M 53.6133 -22.2656 C 60.6445 -22.2656 66.5527 -28.1738 66.5527 -35.2051 C 66.5527 -42.2363 60.6445 -48.1445 53.6133 -48.0957 C 46.5332 -48.0469 40.6738 -42.2363 40.6738 -35.2051 C 40.6738 -28.1738 46.5332 -22.2656 53.6133 -22.2656 Z M 22.7051 -22.2656 C 29.7363 -22.2656 35.5469 -28.1738 35.5469 -35.2051 C 35.5469 -42.2363 29.7363 -48.1445 22.7051 -48.0957 C 15.5762 -48.0469 9.76562 -42.2363 9.76562 -35.2051 C 9.76562 -28.1738 15.5762 -22.2656 22.7051 -22.2656 Z M 22.7051 7.4707 C 29.7363 7.4707 35.5469 1.5625 35.5469 -5.46875 C 35.5469 -12.5977 29.7363 -18.4082 22.7051 -18.4082 C 15.5762 -18.4082 9.76562 -12.5977 9.76562 -5.46875 C 9.76562 1.5625 15.5762 7.4707 22.7051 7.4707 Z M 53.6133 7.4707 C 60.6445 7.4707 66.5527 1.5625 66.5527 -5.46875 C 66.5527 -12.5977 60.6445 -18.4082 53.6133 -18.4082 C 46.5332 -18.4082 40.6738 -12.5977 40.6738 -5.46875 C 40.6738 1.5625 46.5332 7.4707 53.6133 7.4707 Z M 84.5215 7.4707 C 91.6504 7.4707 97.4609 1.5625 97.4609 -5.46875 C 97.4609 -12.5977 91.6504 -18.4082 84.5215 -18.4082 C 77.4902 -18.4082 71.6797 -12.5977 71.6797 -5.46875 C 71.6797 1.5625 77.4902 7.4707 84.5215 7.4707 Z"/>
  </g>
  <g id="Bold-S" transform="matrix(1 0 0 1 2288.17 696)">
   <path d="M 51.8066 -51.3184 C 58.4961 -51.3184 64.0625 -56.8848 64.0625 -63.5742 C 64.0625 -70.3613 58.4961 -75.8789 51.8066 -75.8301 C 45.1172 -75.7812 39.5508 -70.3613 39.5508 -63.5742 C 39.5508 -56.8848 45.1172 -51.3184 51.8066 -51.3184 Z M 81.5918 -51.3184 C 88.3301 -51.3184 93.8477 -56.8848 93.8477 -63.5742 C 93.8477 -70.3613 88.3301 -75.8789 81.5918 -75.8301 C 74.9023 -75.7812 69.3848 -70.3613 69.3848 -63.5742 C 69.3848 -56.8848 74.9023 -51.3184 81.5918 -51.3184 Z M 22.0215 -51.3672 C 28.7109 -51.3672 34.2285 -56.8848 34.2285 -63.5254 C 34.2285 -70.2148 28.7109 -75.7812 22.0215 -75.7812 C 15.2832 -75.7812 9.76562 -70.2148 9.76562 -63.5254 C 9.76562 -56.8848 15.2832 -51.3672 22.0215 -51.3672 Z M 51.8066 -22.9492 C 58.4961 -22.9492 64.0625 -28.5156 64.0625 -35.2051 C 64.0625 -41.8945 58.4961 -47.4609 51.8066 -47.4121 C 45.1172 -47.3633 39.5508 -41.8945 39.5508 -35.2051 C 39.5508 -28.5156 45.1172 -22.9492 51.8066 -22.9492 Z M 81.5918 -22.9492 C 88.3301 -22.9492 93.8477 -28.5156 93.8477 -35.2051 C 93.8477 -41.8945 88.3301 -47.4609 81.5918 -47.4121 C 74.9023 -47.3633 69.3848 -41.8945 69.3848 -35.2051 C 69.3848 -28.5156 74.9023 -22.9492 81.5918 -22.9492 Z M 22.0215 -22.9492 C 28.7109 -22.9492 34.2285 -28.5156 34.2285 -35.2051 C 34.2285 -41.8945 28.7109 -47.4609 22.0215 -47.4121 C 15.2832 -47.3633 9.76562 -41.8945 9.76562 -35.2051 C 9.76562 -28.5156 15.2832 -22.9492 22.0215 -22.9492 Z M 22.0215 5.46875 C 28.7109 5.46875 34.2285 -0.146484 34.2285 -6.83594 C 34.2285 -13.5742 28.7109 -19.043 22.0215 -19.043 C 15.2832 -19.043 9.76562 -13.5742 9.76562 -6.83594 C 9.76562 -0.146484 15.2832 5.46875 22.0215 5.46875 Z M 51.8066 5.46875 C 58.4961 5.46875 64.0625 -0.146484 64.0625 -6.83594 C 64.0625 -13.5742 58.4961 -19.043 51.8066 -19.043 C 45.1172 -19.043 39.5508 -13.5742 39.5508 -6.83594 C 39.5508 -0.146484 45.1172 5.46875 51.8066 5.46875 Z M 81.5918 5.46875 C 88.3301 5.46875 93.8477 -0.146484 93.8477 -6.83594 C 93.8477 -13.5742 88.3301 -19.043 81.5918 -19.043 C 74.9023 -19.043 69.3848 -13.5742 69.3848 -6.83594 C 69.3848 -0.146484 74.9023 5.46875 81.5918 5.46875 Z"/>
  </g>
  <g id="Semibold-S" transform="matrix(1 0 0 1 1992.71 696)">
   <path d="M 79.5898 -50.8301 C 86.0352 -50.8301 91.3574 -56.2012 91.3574 -62.6465 C 91.3574 -69.1895 86.0352 -74.4629 79.5898 -74.4141 C 73.1445 -74.4141 67.8223 -69.1895 67.8223 -62.6465 C 67.8223 -56.2012 73.1445 -50.8301 79.5898 -50.8301 Z M 50.5371 -50.8301 C 56.9824 -50.8301 62.3535 -56.2012 62.3535 -62.6465 C 62.3535 -69.1895 56.9824 -74.4629 50.5371 -74.4141 C 44.0918 -74.4141 38.7695 -69.1895 38.7695 -62.6465 C 38.7695 -56.2012 44.0918 -50.8301 50.5371 -50.8301 Z M 21.5332 -50.8789 C 27.9785 -50.8789 33.3008 -56.2012 33.3008 -62.5977 C 33.3008 -69.043 27.9785 -74.4141 21.5332 -74.4141 C 15.0391 -74.4141 9.76562 -69.043 9.76562 -62.5977 C 9.76562 -56.2012 15.0391 -50.8789 21.5332 -50.8789 Z M 79.5898 -23.3887 C 86.0352 -23.3887 91.3574 -28.7598 91.3574 -35.2051 C 91.3574 -41.6504 86.0352 -47.0215 79.5898 -46.9727 C 73.1445 -46.9238 67.8223 -41.6504 67.8223 -35.2051 C 67.8223 -28.7598 73.1445 -23.3887 79.5898 -23.3887 Z M 50.5371 -23.3887 C 56.9824 -23.3887 62.3535 -28.7598 62.3535 -35.2051 C 62.3535 -41.6504 56.9824 -47.0215 50.5371 -46.9727 C 44.0918 -46.9238 38.7695 -41.6504 38.7695 -35.2051 C 38.7695 -28.7598 44.0918 -23.3887 50.5371 -23.3887 Z M 21.5332 -23.3887 C 27.9785 -23.3887 33.3008 -28.7598 33.3008 -35.2051 C 33.3008 -41.6504 27.9785 -47.0215 21.5332 -46.9727 C 15.0391 -46.9238 9.76562 -41.6504 9.76562 -35.2051 C 9.76562 -28.7598 15.0391 -23.3887 21.5332 -23.3887 Z M 21.5332 4.05273 C 27.9785 4.05273 33.3008 -1.31836 33.3008 -7.76367 C 33.3008 -14.209 27.9785 -19.5312 21.5332 -19.5312 C 15.0391 -19.5312 9.76562 -14.209 9.76562 -7.76367 C 9.76562 -1.31836 15.0391 4.05273 21.5332 4.05273 Z M 50.5371 4.05273 C 56.9824 4.05273 62.3535 -1.31836 62.3535 -7.76367 C 62.3535 -14.209 56.9824 -19.5312 50.5371 -19.5312 C 44.0918 -19.5312 38.7695 -14.209 38.7695 -7.76367 C 38.7695 -1.31836 44.0918 4.05273 50.5371 4.05273 Z M 79.5898 4.05273 C 86.0352 4.05273 91.3574 -1.31836 91.3574 -7.76367 C 91.3574 -14.209 86.0352 -19.5312 79.5898 -19.5312 C 73.1445 -19.5312 67.8223 -14.209 67.8223 -7.76367 C 67.8223 -1.31836 73.1445 4.05273 79.5898 4.05273 Z"/>
  </g>
  <g id="Medium-S" transform="matrix(1 0 0 1 1696.95 696)">
   <path d="M 49.6094 -50.4883 C 55.8594 -50.4883 61.084 -55.7129 61.084 -61.9629 C 61.084 -68.2617 55.8594 -73.4375 49.6094 -73.3887 C 43.3594 -73.3398 38.1836 -68.2617 38.1836 -61.9629 C 38.1836 -55.7129 43.3594 -50.4883 49.6094 -50.4883 Z M 78.0273 -50.4883 C 84.3262 -50.4883 89.4531 -55.7129 89.4531 -61.9629 C 89.4531 -68.2617 84.3262 -73.4375 78.0273 -73.3887 C 71.7773 -73.3398 66.6504 -68.2617 66.6504 -61.9629 C 66.6504 -55.7129 71.7773 -50.4883 78.0273 -50.4883 Z M 21.1914 -50.5371 C 27.4414 -50.5371 32.5684 -55.7129 32.5684 -61.9141 C 32.5684 -68.1641 27.4414 -73.3887 21.1914 -73.3887 C 14.8926 -73.3887 9.76562 -68.1641 9.76562 -61.9141 C 9.76562 -55.7129 14.8926 -50.5371 21.1914 -50.5371 Z M 49.6094 -23.7305 C 55.8594 -23.7305 61.084 -28.9551 61.084 -35.2051 C 61.084 -41.4551 55.8594 -46.6309 49.6094 -46.6309 C 43.3594 -46.582 38.1836 -41.4551 38.1836 -35.2051 C 38.1836 -28.9551 43.3594 -23.7305 49.6094 -23.7305 Z M 78.0273 -23.7305 C 84.3262 -23.7305 89.4531 -28.9551 89.4531 -35.2051 C 89.4531 -41.4551 84.3262 -46.6309 78.0273 -46.6309 C 71.7773 -46.582 66.6504 -41.4551 66.6504 -35.2051 C 66.6504 -28.9551 71.7773 -23.7305 78.0273 -23.7305 Z M 21.1914 -23.7305 C 27.4414 -23.7305 32.5684 -28.9551 32.5684 -35.2051 C 32.5684 -41.4551 27.4414 -46.6309 21.1914 -46.6309 C 14.8926 -46.582 9.76562 -41.4551 9.76562 -35.2051 C 9.76562 -28.9551 14.8926 -23.7305 21.1914 -23.7305 Z M 21.1914 3.02734 C 27.4414 3.02734 32.5684 -2.19727 32.5684 -8.44727 C 32.5684 -14.6973 27.4414 -19.873 21.1914 -19.873 C 14.8926 -19.873 9.76562 -14.6973 9.76562 -8.44727 C 9.76562 -2.19727 14.8926 3.02734 21.1914 3.02734 Z M 49.6094 3.02734 C 55.8594 3.02734 61.084 -2.19727 61.084 -8.44727 C 61.084 -14.6973 55.8594 -19.873 49.6094 -19.873 C 43.3594 -19.873 38.1836 -14.6973 38.1836 -8.44727 C 38.1836 -2.19727 43.3594 3.02734 49.6094 3.02734 Z M 78.0273 3.02734 C 84.3262 3.02734 89.4531 -2.19727 89.4531 -8.44727 C 89.4531 -14.6973 84.3262 -19.873 78.0273 -19.873 C 71.7773 -19.873 66.6504 -14.6973 66.6504 -8.44727 C 66.6504 -2.19727 71.7773 3.02734 78.0273 3.02734 Z"/>
  </g>
  <g id="Regular-S" transform="matrix(1 0 0 1 1401.46 696)">
   <path d="M 76.0254 -50.0488 C 82.0801 -50.0488 87.0117 -55.0293 87.0117 -61.084 C 87.0117 -67.1387 82.0801 -72.0703 76.0254 -72.0215 C 70.0195 -71.9727 65.0879 -67.1387 65.0879 -61.084 C 65.0879 -55.0293 70.0195 -50.0488 76.0254 -50.0488 Z M 48.3887 -50.0488 C 54.3945 -50.0488 59.375 -55.0293 59.375 -61.084 C 59.375 -67.1387 54.3945 -72.0703 48.3887 -72.0215 C 42.3828 -71.9727 37.4023 -67.1387 37.4023 -61.084 C 37.4023 -55.0293 42.3828 -50.0488 48.3887 -50.0488 Z M 20.7031 -50.0977 C 26.709 -50.0977 31.6406 -55.0293 31.6406 -61.0352 C 31.6406 -67.041 26.709 -72.0215 20.7031 -72.0215 C 14.6973 -72.0215 9.76562 -67.041 9.76562 -61.0352 C 9.76562 -55.0293 14.6973 -50.0977 20.7031 -50.0977 Z M 20.7031 -24.2188 C 26.709 -24.2188 31.6406 -29.1992 31.6406 -35.2051 C 31.6406 -41.2109 26.709 -46.1914 20.7031 -46.1426 C 14.6973 -46.0938 9.76562 -41.2109 9.76562 -35.2051 C 9.76562 -29.1992 14.6973 -24.2188 20.7031 -24.2188 Z M 76.0254 -24.2188 C 82.0801 -24.2188 87.0117 -29.1992 87.0117 -35.2051 C 87.0117 -41.2109 82.0801 -46.1914 76.0254 -46.1426 C 70.0195 -46.0938 65.0879 -41.2109 65.0879 -35.2051 C 65.0879 -29.1992 70.0195 -24.2188 76.0254 -24.2188 Z M 48.3887 -24.2188 C 54.3945 -24.2188 59.375 -29.1992 59.375 -35.2051 C 59.375 -41.2109 54.3945 -46.1914 48.3887 -46.1426 C 42.3828 -46.0938 37.4023 -41.2109 37.4023 -35.2051 C 37.4023 -29.1992 42.3828 -24.2188 48.3887 -24.2188 Z M 20.7031 1.66016 C 26.709 1.66016 31.6406 -3.32031 31.6406 -9.32617 C 31.6406 -15.3809 26.709 -20.3125 20.7031 -20.3125 C 14.6973 -20.3125 9.76562 -15.3809 9.76562 -9.32617 C 9.76562 -3.32031 14.6973 1.66016 20.7031 1.66016 Z M 48.3887 1.66016 C 54.3945 1.66016 59.375 -3.32031 59.375 -9.32617 C 59.375 -15.3809 54.3945 -20.3125 48.3887 -20.3125 C 42.3828 -20.3125 37.4023 -15.3809 37.4023 -9.32617 C 37.4023 -3.32031 42.3828 1.66016 48.3887 1.66016 Z M 76.0254 1.66016 C 82.0801 1.66016 87.0117 -3.32031 87.0117 -9.32617 C 87.0117 -15.3809 82.0801 -20.3125 76.0254 -20.3125 C 70.0195 -20.3125 65.0879 -15.3809 65.0879 -9.32617 C 65.0879 -3.32031 70.0195 1.66016 76.0254 1.66016 Z"/>
  </g>
  <g id="Light-S" transform="matrix(1 0 0 1 1104.52 696)">
   <path d="M 20.8008 -50.1953 C 26.8066 -50.1953 31.7871 -55.1758 31.7871 -61.1816 C 31.7871 -67.2363 26.8066 -72.2168 20.8008 -72.2168 C 14.7461 -72.2168 9.76562 -67.2363 9.76562 -61.1816 C 9.76562 -55.1758 14.7461 -50.1953 20.8008 -50.1953 Z M 48.6328 -50.1465 C 54.6387 -50.1465 59.668 -55.1758 59.668 -61.2305 C 59.668 -67.2852 54.6387 -72.2656 48.6328 -72.2168 C 42.5781 -72.2168 37.5488 -67.2852 37.5488 -61.2305 C 37.5488 -55.1758 42.5781 -50.1465 48.6328 -50.1465 Z M 76.4648 -50.1465 C 82.4707 -50.1465 87.4512 -55.1758 87.4512 -61.2305 C 87.4512 -67.2852 82.4707 -72.2656 76.4648 -72.2168 C 70.3613 -72.2168 65.4297 -67.2852 65.4297 -61.2305 C 65.4297 -55.1758 70.3613 -50.1465 76.4648 -50.1465 Z M 20.8008 -24.1699 C 26.8066 -24.1699 31.7871 -29.1504 31.7871 -35.2051 C 31.7871 -41.2109 26.8066 -46.2402 20.8008 -46.1914 C 14.7461 -46.1914 9.76562 -41.2109 9.76562 -35.2051 C 9.76562 -29.1504 14.7461 -24.1699 20.8008 -24.1699 Z M 48.6328 -24.1699 C 54.6387 -24.1699 59.668 -29.1504 59.668 -35.2051 C 59.668 -41.2109 54.6387 -46.2402 48.6328 -46.1914 C 42.5781 -46.1914 37.5488 -41.2109 37.5488 -35.2051 C 37.5488 -29.1504 42.5781 -24.1699 48.6328 -24.1699 Z M 76.4648 -24.1699 C 82.4707 -24.1699 87.4512 -29.1504 87.4512 -35.2051 C 87.4512 -41.2109 82.4707 -46.2402 76.4648 -46.1914 C 70.3613 -46.1914 65.4297 -41.2109 65.4297 -35.2051 C 65.4297 -29.1504 70.3613 -24.1699 76.4648 -24.1699 Z M 20.8008 1.85547 C 26.8066 1.85547 31.7871 -3.125 31.7871 -9.17969 C 31.7871 -15.2344 26.8066 -20.2148 20.8008 -20.2148 C 14.7461 -20.2148 9.76562 -15.2344 9.76562 -9.17969 C 9.76562 -3.125 14.7461 1.85547 20.8008 1.85547 Z M 48.6328 1.85547 C 54.6387 1.85547 59.668 -3.125 59.668 -9.17969 C 59.668 -15.2344 54.6387 -20.2148 48.6328 -20.2148 C 42.5781 -20.2148 37.5488 -15.2344 37.5488 -9.17969 C 37.5488 -3.125 42.5781 1.85547 48.6328 1.85547 Z M 76.4648 1.85547 C 82.4707 1.85547 87.4512 -3.125 87.4512 -9.17969 C 87.4512 -15.2344 82.4707 -20.2148 76.4648 -20.2148 C 70.3613 -20.2148 65.4297 -15.2344 65.4297 -9.17969 C 65.4297 -3.125 70.3613 1.85547 76.4648 1.85547 Z"/>
  </g>
  <g id="Thin-S" transform="matrix(1 0 0 1 807.521 696)">
   <path d="M 20.8984 -50.293 C 26.9531 -50.293 31.9824 -55.3223 31.9824 -61.377 C 31.9824 -67.4805 26.9531 -72.5098 20.8984 -72.5098 C 14.7461 -72.5098 9.76562 -67.4805 9.76562 -61.377 C 9.76562 -55.3223 14.7461 -50.293 20.8984 -50.293 Z M 48.9258 -50.293 C 54.9805 -50.293 60.0098 -55.3223 60.0098 -61.377 C 60.0098 -67.4805 54.9805 -72.5098 48.9258 -72.5098 C 42.8223 -72.5098 37.793 -67.4805 37.793 -61.377 C 37.793 -55.3223 42.8223 -50.293 48.9258 -50.293 Z M 76.9531 -50.293 C 83.0566 -50.293 88.0371 -55.3223 88.0371 -61.377 C 88.0371 -67.4805 83.0566 -72.5098 76.9531 -72.5098 C 70.8496 -72.5098 65.8203 -67.4805 65.8203 -61.377 C 65.8203 -55.3223 70.8496 -50.293 76.9531 -50.293 Z M 20.8984 -24.0723 C 26.9531 -24.0723 31.9824 -29.1016 31.9824 -35.1562 C 31.9824 -41.2598 26.9531 -46.2891 20.8984 -46.2891 C 14.7461 -46.2891 9.76562 -41.2598 9.76562 -35.1562 C 9.76562 -29.1016 14.7461 -24.0723 20.8984 -24.0723 Z M 48.9258 -24.0723 C 54.9805 -24.0723 60.0098 -29.1016 60.0098 -35.1562 C 60.0098 -41.2598 54.9805 -46.2891 48.9258 -46.2891 C 42.8223 -46.2891 37.793 -41.2598 37.793 -35.1562 C 37.793 -29.1016 42.8223 -24.0723 48.9258 -24.0723 Z M 76.9531 -24.0723 C 83.0566 -24.0723 88.0371 -29.1016 88.0371 -35.1562 C 88.0371 -41.2598 83.0566 -46.2891 76.9531 -46.2891 C 70.8496 -46.2891 65.8203 -41.2598 65.8203 -35.1562 C 65.8203 -29.1016 70.8496 -24.0723 76.9531 -24.0723 Z M 20.8984 2.09961 C 26.9531 2.09961 31.9824 -2.88086 31.9824 -8.98438 C 31.9824 -15.0391 26.9531 -20.1172 20.8984 -20.1172 C 14.7461 -20.1172 9.76562 -15.0391 9.76562 -8.98438 C 9.76562 -2.88086 14.7461 2.09961 20.8984 2.09961 Z M 48.9258 2.09961 C 54.9805 2.09961 60.0098 -2.88086 60.0098 -8.98438 C 60.0098 -15.0391 54.9805 -20.1172 48.9258 -20.1172 C 42.8223 -20.1172 37.793 -15.0391 37.793 -8.98438 C 37.793 -2.88086 42.8223 2.09961 48.9258 2.09961 Z M 76.9531 2.09961 C 83.0566 2.09961 88.0371 -2.88086 88.0371 -8.98438 C 88.0371 -15.0391 83.0566 -20.1172 76.9531 -20.1172 C 70.8496 -20.1172 65.8203 -15.0391 65.8203 -8.98438 C 65.8203 -2.88086 70.8496 2.09961 76.9531 2.09961 Z"/>
  </g>
  <g id="Ultralight-S" transform="matrix(1 0 0 1 510.639 696)">
   <path d="M 20.9473 -50.3906 C 27.0508 -50.3906 32.0801 -55.4199 32.0801 -61.4746 C 32.0801 -67.5781 27.0508 -72.6562 20.9473 -72.6562 C 14.7949 -72.6562 9.76562 -67.5781 9.76562 -61.4746 C 9.76562 -55.4199 14.7949 -50.3906 20.9473 -50.3906 Z M 49.0723 -50.3906 C 55.1758 -50.3906 60.2051 -55.4199 60.2051 -61.5234 C 60.2051 -67.5781 55.1758 -72.6562 49.0723 -72.6562 C 42.9199 -72.6562 37.8906 -67.5781 37.8906 -61.5234 C 37.8906 -55.4199 42.9199 -50.3906 49.0723 -50.3906 Z M 77.2461 -50.3906 C 83.3496 -50.3906 88.3789 -55.4199 88.3789 -61.5234 C 88.3789 -67.5781 83.3496 -72.6562 77.2461 -72.6562 C 71.0938 -72.6562 66.0645 -67.5781 66.0645 -61.5234 C 66.0645 -55.4199 71.0938 -50.3906 77.2461 -50.3906 Z M 20.9473 -24.0234 C 27.0508 -24.0234 32.0801 -29.0527 32.0801 -35.1562 C 32.0801 -41.2598 27.0508 -46.3379 20.9473 -46.3379 C 14.7949 -46.3379 9.76562 -41.2598 9.76562 -35.1562 C 9.76562 -29.0527 14.7949 -24.0234 20.9473 -24.0234 Z M 49.0723 -24.0234 C 55.1758 -24.0234 60.2051 -29.0527 60.2051 -35.1562 C 60.2051 -41.2598 55.1758 -46.3379 49.0723 -46.3379 C 42.9199 -46.3379 37.8906 -41.2598 37.8906 -35.1562 C 37.8906 -29.0527 42.9199 -24.0234 49.0723 -24.0234 Z M 77.2461 -24.0234 C 83.3496 -24.0234 88.3789 -29.0527 88.3789 -35.1562 C 88.3789 -41.2598 83.3496 -46.3379 77.2461 -46.3379 C 71.0938 -46.3379 66.0645 -41.2598 66.0645 -35.1562 C 66.0645 -29.0527 71.0938 -24.0234 77.2461 -24.0234 Z M 20.9473 2.24609 C 27.0508 2.24609 32.0801 -2.7832 32.0801 -8.88672 C 32.0801 -14.9414 27.0508 -20.0195 20.9473 -20.0195 C 14.7949 -20.0195 9.76562 -14.9414 9.76562 -8.88672 C 9.76562 -2.7832 14.7949 2.24609 20.9473 2.24609 Z M 49.0723 2.24609 C 55.1758 2.24609 60.2051 -2.7832 60.2051 -8.88672 C 60.2051 -14.9414 55.1758 -20.0195 49.0723 -20.0195 C 42.9199 -20.0195 37.8906 -14.9414 37.8906 -8.88672 C 37.8906 -2.7832 42.9199 2.24609 49.0723 2.24609 Z M 77.2461 2.24609 C 83.3496 2.24609 88.3789 -2.7832 88.3789 -8.88672 C 88.3789 -14.9414 83.3496 -20.0195 77.2461 -20.0195 C 71.0938 -20.0195 66.0645 -14.9414 66.0645 -8.88672 C 66.0645 -2.7832 71.0938 2.24609 77.2461 2.24609 Z"/>
  </g>
 </g>
</svg>
